<svg xmlns="http://www.w3.org/2000/svg" style="position:fixed;margin:auto;background: linear-gradient(135deg, rgba(255,255,255,1) 57%, rgba(0,0,0,1) 80%);display:block;" width="280" height="250" preserveAspectRatio="xMidYMid">
<style type="text/css">
  text {
    text-anchor: middle; font-size: 6px; opacity: 0;
  }
</style>
<g style="transform-origin:140px 125px;transform:scale(1)">
<style type="text/css">
  @keyframes ld-speed-dash {
    0% { transform: translate(0,-125px); }
    100% { transform: translate(0,125px); }
  }
  .ld.ld-speed-dash-1 {
    animation: ld-speed-dash 1.1111111111111112s linear infinite;
  }
  .ld.ld-speed-dash-2 {
    animation: ld-speed-dash 2.2222222222222223s linear infinite;
  }

</style>
  <g transform="translate(140,125)">
    <g style="transform:rotate(131deg)">
      <g class="ld ld-speed-dash-1"><line x1="70.05370372549226" x2="70.05370372549226" y1="281.6013675384975" y2="364.6978403585812" stroke="#ffffff" stroke-width="3.2915905245829147" stroke-linecap="round"></line><line x1="70.05370372549226" x2="70.05370372549226" y1="156.60136753849756" y2="239.69784035858115" stroke="#ffffff" stroke-width="3.2915905245829147" stroke-linecap="round"></line><line x1="70.05370372549226" x2="70.05370372549226" y1="31.601367538497545" y2="114.69784035858115" stroke="#ffffff" stroke-width="3.2915905245829147" stroke-linecap="round"></line><line x1="70.05370372549226" x2="70.05370372549226" y1="-93.39863246150246" y2="-10.302159641418854" stroke="#ffffff" stroke-width="3.2915905245829147" stroke-linecap="round"></line><line x1="70.05370372549226" x2="70.05370372549226" y1="-218.39863246150244" y2="-135.30215964141885" stroke="#ffffff" stroke-width="3.2915905245829147" stroke-linecap="round"></line><line x1="119.82796847424326" x2="119.82796847424326" y1="196.98200350839582" y2="236.24830449896132" stroke="#ffffff" stroke-width="3.835879609724393" stroke-linecap="round"></line><line x1="119.82796847424326" x2="119.82796847424326" y1="71.98200350839582" y2="111.2483044989613" stroke="#ffffff" stroke-width="3.835879609724393" stroke-linecap="round"></line><line x1="119.82796847424326" x2="119.82796847424326" y1="-53.01799649160419" y2="-13.751695501038697" stroke="#ffffff" stroke-width="3.835879609724393" stroke-linecap="round"></line><line x1="119.82796847424326" x2="119.82796847424326" y1="-178.01799649160418" y2="-138.75169550103868" stroke="#ffffff" stroke-width="3.835879609724393" stroke-linecap="round"></line><line x1="119.82796847424326" x2="119.82796847424326" y1="-303.0179964916042" y2="-263.7516955010387" stroke="#ffffff" stroke-width="3.835879609724393" stroke-linecap="round"></line><line x1="-121.07409296122383" x2="-121.07409296122383" y1="222.59401426446752" y2="272.22617689337693" stroke="#ffffff" stroke-width="3.5647571618251375" stroke-linecap="round"></line><line x1="-121.07409296122383" x2="-121.07409296122383" y1="97.59401426446752" y2="147.22617689337693" stroke="#ffffff" stroke-width="3.5647571618251375" stroke-linecap="round"></line><line x1="-121.07409296122383" x2="-121.07409296122383" y1="-27.40598573553249" y2="22.226176893376934" stroke="#ffffff" stroke-width="3.5647571618251375" stroke-linecap="round"></line><line x1="-121.07409296122383" x2="-121.07409296122383" y1="-152.40598573553248" y2="-102.77382310662307" stroke="#ffffff" stroke-width="3.5647571618251375" stroke-linecap="round"></line><line x1="-121.07409296122383" x2="-121.07409296122383" y1="-277.4059857355325" y2="-227.77382310662307" stroke="#ffffff" stroke-width="3.5647571618251375" stroke-linecap="round"></line><line x1="58.713280150897546" x2="58.713280150897546" y1="273.33214474104767" y2="331.2235272027533" stroke="#ffffff" stroke-width="1.3129618395580867" stroke-linecap="round"></line><line x1="58.713280150897546" x2="58.713280150897546" y1="148.3321447410477" y2="206.2235272027533" stroke="#ffffff" stroke-width="1.3129618395580867" stroke-linecap="round"></line><line x1="58.713280150897546" x2="58.713280150897546" y1="23.332144741047696" y2="81.2235272027533" stroke="#ffffff" stroke-width="1.3129618395580867" stroke-linecap="round"></line><line x1="58.713280150897546" x2="58.713280150897546" y1="-101.6678552589523" y2="-43.7764727972467" stroke="#ffffff" stroke-width="1.3129618395580867" stroke-linecap="round"></line><line x1="58.713280150897546" x2="58.713280150897546" y1="-226.6678552589523" y2="-168.7764727972467" stroke="#ffffff" stroke-width="1.3129618395580867" stroke-linecap="round"></line><line x1="17.685153582332475" x2="17.685153582332475" y1="280.508030725633" y2="320.48489540942205" stroke="#ffffff" stroke-width="3.9473285698573313" stroke-linecap="round"></line><line x1="17.685153582332475" x2="17.685153582332475" y1="155.50803072563298" y2="195.48489540942205" stroke="#ffffff" stroke-width="3.9473285698573313" stroke-linecap="round"></line><line x1="17.685153582332475" x2="17.685153582332475" y1="30.508030725632963" y2="70.48489540942207" stroke="#ffffff" stroke-width="3.9473285698573313" stroke-linecap="round"></line><line x1="17.685153582332475" x2="17.685153582332475" y1="-94.49196927436704" y2="-54.515104590577934" stroke="#ffffff" stroke-width="3.9473285698573313" stroke-linecap="round"></line><line x1="17.685153582332475" x2="17.685153582332475" y1="-219.49196927436702" y2="-179.51510459057795" stroke="#ffffff" stroke-width="3.9473285698573313" stroke-linecap="round"></line><line x1="-113.91117909352641" x2="-113.91117909352641" y1="250.2158858260874" y2="320.3811187495303" stroke="#ffffff" stroke-width="3.5911119565599883" stroke-linecap="round"></line><line x1="-113.91117909352641" x2="-113.91117909352641" y1="125.21588582608739" y2="195.3811187495303" stroke="#ffffff" stroke-width="3.5911119565599883" stroke-linecap="round"></line><line x1="-113.91117909352641" x2="-113.91117909352641" y1="0.21588582608739193" y2="70.38111874953029" stroke="#ffffff" stroke-width="3.5911119565599883" stroke-linecap="round"></line><line x1="-113.91117909352641" x2="-113.91117909352641" y1="-124.78411417391261" y2="-54.61888125046971" stroke="#ffffff" stroke-width="3.5911119565599883" stroke-linecap="round"></line><line x1="-113.91117909352641" x2="-113.91117909352641" y1="-249.7841141739126" y2="-179.6188812504697" stroke="#ffffff" stroke-width="3.5911119565599883" stroke-linecap="round"></line><line x1="-7.717217775668157" x2="-7.717217775668157" y1="232.55979993318985" y2="278.7459113501463" stroke="#ffffff" stroke-width="2.602321307747096" stroke-linecap="round"></line><line x1="-7.717217775668157" x2="-7.717217775668157" y1="107.55979993318985" y2="153.7459113501463" stroke="#ffffff" stroke-width="2.602321307747096" stroke-linecap="round"></line><line x1="-7.717217775668157" x2="-7.717217775668157" y1="-17.440200066810156" y2="28.74591135014628" stroke="#ffffff" stroke-width="2.602321307747096" stroke-linecap="round"></line><line x1="-7.717217775668157" x2="-7.717217775668157" y1="-142.44020006681015" y2="-96.25408864985371" stroke="#ffffff" stroke-width="2.602321307747096" stroke-linecap="round"></line><line x1="-7.717217775668157" x2="-7.717217775668157" y1="-267.4402000668102" y2="-221.2540886498537" stroke="#ffffff" stroke-width="2.602321307747096" stroke-linecap="round"></line><line x1="-33.80113083761295" x2="-33.80113083761295" y1="291.0707021255813" y2="376.9372342869667" stroke="#ffffff" stroke-width="1.4937465362633984" stroke-linecap="round"></line><line x1="-33.80113083761295" x2="-33.80113083761295" y1="166.07070212558128" y2="251.93723428696674" stroke="#ffffff" stroke-width="1.4937465362633984" stroke-linecap="round"></line><line x1="-33.80113083761295" x2="-33.80113083761295" y1="41.070702125581285" y2="126.93723428696674" stroke="#ffffff" stroke-width="1.4937465362633984" stroke-linecap="round"></line><line x1="-33.80113083761295" x2="-33.80113083761295" y1="-83.92929787441872" y2="1.937234286966742" stroke="#ffffff" stroke-width="1.4937465362633984" stroke-linecap="round"></line><line x1="-33.80113083761295" x2="-33.80113083761295" y1="-208.92929787441872" y2="-123.06276571303326" stroke="#ffffff" stroke-width="1.4937465362633984" stroke-linecap="round"></line><line x1="47.305486907997796" x2="47.305486907997796" y1="225.92741832006996" y2="256.5002371248042" stroke="#ffffff" stroke-width="4.858450454952163" stroke-linecap="round"></line><line x1="47.305486907997796" x2="47.305486907997796" y1="100.92741832006996" y2="131.5002371248042" stroke="#ffffff" stroke-width="4.858450454952163" stroke-linecap="round"></line><line x1="47.305486907997796" x2="47.305486907997796" y1="-24.07258167993004" y2="6.500237124804194" stroke="#ffffff" stroke-width="4.858450454952163" stroke-linecap="round"></line><line x1="47.305486907997796" x2="47.305486907997796" y1="-149.07258167993004" y2="-118.49976287519581" stroke="#ffffff" stroke-width="4.858450454952163" stroke-linecap="round"></line><line x1="47.305486907997796" x2="47.305486907997796" y1="-274.07258167993007" y2="-243.4997628751958" stroke="#ffffff" stroke-width="4.858450454952163" stroke-linecap="round"></line><line x1="101.68058838382676" x2="101.68058838382676" y1="304.67091107673195" y2="362.694183265319" stroke="#ffffff" stroke-width="0.8686920809695409" stroke-linecap="round"></line><line x1="101.68058838382676" x2="101.68058838382676" y1="179.67091107673195" y2="237.69418326531897" stroke="#ffffff" stroke-width="0.8686920809695409" stroke-linecap="round"></line><line x1="101.68058838382676" x2="101.68058838382676" y1="54.67091107673197" y2="112.69418326531897" stroke="#ffffff" stroke-width="0.8686920809695409" stroke-linecap="round"></line><line x1="101.68058838382676" x2="101.68058838382676" y1="-70.32908892326803" y2="-12.30581673468103" stroke="#ffffff" stroke-width="0.8686920809695409" stroke-linecap="round"></line><line x1="101.68058838382676" x2="101.68058838382676" y1="-195.32908892326805" y2="-137.30581673468103" stroke="#ffffff" stroke-width="0.8686920809695409" stroke-linecap="round"></line><line x1="-29.952418291448176" x2="-29.952418291448176" y1="271.5068811391421" y2="350.85991988506885" stroke="#ffffff" stroke-width="3.445413136758031" stroke-linecap="round"></line><line x1="-29.952418291448176" x2="-29.952418291448176" y1="146.50688113914205" y2="225.85991988506885" stroke="#ffffff" stroke-width="3.445413136758031" stroke-linecap="round"></line><line x1="-29.952418291448176" x2="-29.952418291448176" y1="21.506881139142063" y2="100.85991988506883" stroke="#ffffff" stroke-width="3.445413136758031" stroke-linecap="round"></line><line x1="-29.952418291448176" x2="-29.952418291448176" y1="-103.49311886085793" y2="-24.140080114931166" stroke="#ffffff" stroke-width="3.445413136758031" stroke-linecap="round"></line><line x1="-29.952418291448176" x2="-29.952418291448176" y1="-228.49311886085795" y2="-149.14008011493115" stroke="#ffffff" stroke-width="3.445413136758031" stroke-linecap="round"></line><line x1="-77.0160621609615" x2="-77.0160621609615" y1="214.130429693055" y2="276.64861896005414" stroke="#ffffff" stroke-width="2.717984418995958" stroke-linecap="round"></line><line x1="-77.0160621609615" x2="-77.0160621609615" y1="89.13042969305499" y2="151.64861896005414" stroke="#ffffff" stroke-width="2.717984418995958" stroke-linecap="round"></line><line x1="-77.0160621609615" x2="-77.0160621609615" y1="-35.869570306945015" y2="26.648618960054137" stroke="#ffffff" stroke-width="2.717984418995958" stroke-linecap="round"></line><line x1="-77.0160621609615" x2="-77.0160621609615" y1="-160.869570306945" y2="-98.35138103994586" stroke="#ffffff" stroke-width="2.717984418995958" stroke-linecap="round"></line><line x1="-77.0160621609615" x2="-77.0160621609615" y1="-285.86957030694504" y2="-223.35138103994586" stroke="#ffffff" stroke-width="2.717984418995958" stroke-linecap="round"></line><line x1="-58.212942492515516" x2="-58.212942492515516" y1="307.31283546556165" y2="369.0946748191372" stroke="#ffffff" stroke-width="0.8209961429275225" stroke-linecap="round"></line><line x1="-58.212942492515516" x2="-58.212942492515516" y1="182.31283546556168" y2="244.0946748191372" stroke="#ffffff" stroke-width="0.8209961429275225" stroke-linecap="round"></line><line x1="-58.212942492515516" x2="-58.212942492515516" y1="57.312835465561676" y2="119.0946748191372" stroke="#ffffff" stroke-width="0.8209961429275225" stroke-linecap="round"></line><line x1="-58.212942492515516" x2="-58.212942492515516" y1="-67.68716453443832" y2="-5.905325180862803" stroke="#ffffff" stroke-width="0.8209961429275225" stroke-linecap="round"></line><line x1="-58.212942492515516" x2="-58.212942492515516" y1="-192.68716453443832" y2="-130.9053251808628" stroke="#ffffff" stroke-width="0.8209961429275225" stroke-linecap="round"></line><line x1="-2.4933570222435275" x2="-2.4933570222435275" y1="312.2757914980942" y2="351.3272655483166" stroke="#ffffff" stroke-width="1.7136526562848975" stroke-linecap="round"></line><line x1="-2.4933570222435275" x2="-2.4933570222435275" y1="187.27579149809418" y2="226.32726554831657" stroke="#ffffff" stroke-width="1.7136526562848975" stroke-linecap="round"></line><line x1="-2.4933570222435275" x2="-2.4933570222435275" y1="62.27579149809417" y2="101.32726554831659" stroke="#ffffff" stroke-width="1.7136526562848975" stroke-linecap="round"></line><line x1="-2.4933570222435275" x2="-2.4933570222435275" y1="-62.72420850190583" y2="-23.67273445168341" stroke="#ffffff" stroke-width="1.7136526562848975" stroke-linecap="round"></line><line x1="-2.4933570222435275" x2="-2.4933570222435275" y1="-187.72420850190582" y2="-148.67273445168343" stroke="#ffffff" stroke-width="1.7136526562848975" stroke-linecap="round"></line><line x1="118.89772963192017" x2="118.89772963192017" y1="300.7010937328028" y2="355.07213763707443" stroke="#ffffff" stroke-width="2.496356915593654" stroke-linecap="round"></line><line x1="118.89772963192017" x2="118.89772963192017" y1="175.7010937328028" y2="230.07213763707446" stroke="#ffffff" stroke-width="2.496356915593654" stroke-linecap="round"></line><line x1="118.89772963192017" x2="118.89772963192017" y1="50.70109373280282" y2="105.07213763707446" stroke="#ffffff" stroke-width="2.496356915593654" stroke-linecap="round"></line><line x1="118.89772963192017" x2="118.89772963192017" y1="-74.29890626719718" y2="-19.927862362925538" stroke="#ffffff" stroke-width="2.496356915593654" stroke-linecap="round"></line><line x1="118.89772963192017" x2="118.89772963192017" y1="-199.2989062671972" y2="-144.92786236292554" stroke="#ffffff" stroke-width="2.496356915593654" stroke-linecap="round"></line><line x1="54.021115003478556" x2="54.021115003478556" y1="246.89252551033584" y2="289.28198135791365" stroke="#ffffff" stroke-width="1.6095606335740276" stroke-linecap="round"></line><line x1="54.021115003478556" x2="54.021115003478556" y1="121.89252551033583" y2="164.28198135791365" stroke="#ffffff" stroke-width="1.6095606335740276" stroke-linecap="round"></line><line x1="54.021115003478556" x2="54.021115003478556" y1="-3.1074744896641695" y2="39.281981357913665" stroke="#ffffff" stroke-width="1.6095606335740276" stroke-linecap="round"></line><line x1="54.021115003478556" x2="54.021115003478556" y1="-128.10747448966416" y2="-85.71801864208634" stroke="#ffffff" stroke-width="1.6095606335740276" stroke-linecap="round"></line><line x1="54.021115003478556" x2="54.021115003478556" y1="-253.10747448966416" y2="-210.71801864208635" stroke="#ffffff" stroke-width="1.6095606335740276" stroke-linecap="round"></line><line x1="-25.952575020722364" x2="-25.952575020722364" y1="265.29062518149544" y2="310.534058480484" stroke="#ffffff" stroke-width="2.325683417115756" stroke-linecap="round"></line><line x1="-25.952575020722364" x2="-25.952575020722364" y1="140.29062518149547" y2="185.53405848048402" stroke="#ffffff" stroke-width="2.325683417115756" stroke-linecap="round"></line><line x1="-25.952575020722364" x2="-25.952575020722364" y1="15.290625181495459" y2="60.53405848048402" stroke="#ffffff" stroke-width="2.325683417115756" stroke-linecap="round"></line><line x1="-25.952575020722364" x2="-25.952575020722364" y1="-109.70937481850454" y2="-64.46594151951598" stroke="#ffffff" stroke-width="2.325683417115756" stroke-linecap="round"></line><line x1="-25.952575020722364" x2="-25.952575020722364" y1="-234.70937481850453" y2="-189.46594151951598" stroke="#ffffff" stroke-width="2.325683417115756" stroke-linecap="round"></line><line x1="57.12118195866975" x2="57.12118195866975" y1="213.09118224588113" y2="296.9312089310597" stroke="#ffffff" stroke-width="1.3117075107885945" stroke-linecap="round"></line><line x1="57.12118195866975" x2="57.12118195866975" y1="88.09118224588113" y2="171.9312089310597" stroke="#ffffff" stroke-width="1.3117075107885945" stroke-linecap="round"></line><line x1="57.12118195866975" x2="57.12118195866975" y1="-36.908817754118864" y2="46.93120893105969" stroke="#ffffff" stroke-width="1.3117075107885945" stroke-linecap="round"></line><line x1="57.12118195866975" x2="57.12118195866975" y1="-161.90881775411887" y2="-78.0687910689403" stroke="#ffffff" stroke-width="1.3117075107885945" stroke-linecap="round"></line><line x1="57.12118195866975" x2="57.12118195866975" y1="-286.90881775411884" y2="-203.0687910689403" stroke="#ffffff" stroke-width="1.3117075107885945" stroke-linecap="round"></line><line x1="-138.9827805794871" x2="-138.9827805794871" y1="269.2628251612506" y2="330.8500816783036" stroke="#ffffff" stroke-width="4.424712819627739" stroke-linecap="round"></line><line x1="-138.9827805794871" x2="-138.9827805794871" y1="144.26282516125062" y2="205.85008167830358" stroke="#ffffff" stroke-width="4.424712819627739" stroke-linecap="round"></line><line x1="-138.9827805794871" x2="-138.9827805794871" y1="19.262825161250607" y2="80.8500816783036" stroke="#ffffff" stroke-width="4.424712819627739" stroke-linecap="round"></line><line x1="-138.9827805794871" x2="-138.9827805794871" y1="-105.7371748387494" y2="-44.149918321696404" stroke="#ffffff" stroke-width="4.424712819627739" stroke-linecap="round"></line><line x1="-138.9827805794871" x2="-138.9827805794871" y1="-230.73717483874938" y2="-169.14991832169642" stroke="#ffffff" stroke-width="4.424712819627739" stroke-linecap="round"></line><line x1="24.469436413013142" x2="24.469436413013142" y1="299.67406939778925" y2="385.9119111810248" stroke="#ffffff" stroke-width="1.2110044493913874" stroke-linecap="round"></line><line x1="24.469436413013142" x2="24.469436413013142" y1="174.67406939778925" y2="260.9119111810248" stroke="#ffffff" stroke-width="1.2110044493913874" stroke-linecap="round"></line><line x1="24.469436413013142" x2="24.469436413013142" y1="49.67406939778926" y2="135.91191118102478" stroke="#ffffff" stroke-width="1.2110044493913874" stroke-linecap="round"></line><line x1="24.469436413013142" x2="24.469436413013142" y1="-75.32593060221075" y2="10.911911181024777" stroke="#ffffff" stroke-width="1.2110044493913874" stroke-linecap="round"></line><line x1="24.469436413013142" x2="24.469436413013142" y1="-200.32593060221075" y2="-114.08808881897522" stroke="#ffffff" stroke-width="1.2110044493913874" stroke-linecap="round"></line><line x1="-29.95547143851504" x2="-29.95547143851504" y1="246.00922872472012" y2="305.8204257850718" stroke="#ffffff" stroke-width="3.550309761889745" stroke-linecap="round"></line><line x1="-29.95547143851504" x2="-29.95547143851504" y1="121.00922872472012" y2="180.8204257850718" stroke="#ffffff" stroke-width="3.550309761889745" stroke-linecap="round"></line><line x1="-29.95547143851504" x2="-29.95547143851504" y1="-3.9907712752798865" y2="55.82042578507179" stroke="#ffffff" stroke-width="3.550309761889745" stroke-linecap="round"></line><line x1="-29.95547143851504" x2="-29.95547143851504" y1="-128.99077127527988" y2="-69.17957421492821" stroke="#ffffff" stroke-width="3.550309761889745" stroke-linecap="round"></line><line x1="-29.95547143851504" x2="-29.95547143851504" y1="-253.99077127527988" y2="-194.1795742149282" stroke="#ffffff" stroke-width="3.550309761889745" stroke-linecap="round"></line><line x1="70.32847262718526" x2="70.32847262718526" y1="246.61571767044626" y2="297.45180278579426" stroke="#ffffff" stroke-width="3.3573067246041455" stroke-linecap="round"></line><line x1="70.32847262718526" x2="70.32847262718526" y1="121.61571767044627" y2="172.45180278579426" stroke="#ffffff" stroke-width="3.3573067246041455" stroke-linecap="round"></line><line x1="70.32847262718526" x2="70.32847262718526" y1="-3.384282329553734" y2="47.45180278579426" stroke="#ffffff" stroke-width="3.3573067246041455" stroke-linecap="round"></line><line x1="70.32847262718526" x2="70.32847262718526" y1="-128.38428232955374" y2="-77.54819721420574" stroke="#ffffff" stroke-width="3.3573067246041455" stroke-linecap="round"></line><line x1="70.32847262718526" x2="70.32847262718526" y1="-253.38428232955374" y2="-202.54819721420574" stroke="#ffffff" stroke-width="3.3573067246041455" stroke-linecap="round"></line><line x1="54.74447901328983" x2="54.74447901328983" y1="257.45090684594237" y2="294.1903253589668" stroke="#ffffff" stroke-width="4.670041457316706" stroke-linecap="round"></line><line x1="54.74447901328983" x2="54.74447901328983" y1="132.45090684594234" y2="169.1903253589668" stroke="#ffffff" stroke-width="4.670041457316706" stroke-linecap="round"></line><line x1="54.74447901328983" x2="54.74447901328983" y1="7.450906845942351" y2="44.19032535896678" stroke="#ffffff" stroke-width="4.670041457316706" stroke-linecap="round"></line><line x1="54.74447901328983" x2="54.74447901328983" y1="-117.54909315405764" y2="-80.80967464103321" stroke="#ffffff" stroke-width="4.670041457316706" stroke-linecap="round"></line><line x1="54.74447901328983" x2="54.74447901328983" y1="-242.54909315405766" y2="-205.8096746410332" stroke="#ffffff" stroke-width="4.670041457316706" stroke-linecap="round"></line><line x1="108.9814320469567" x2="108.9814320469567" y1="192.05323352193813" y2="221.85299410540688" stroke="#ffffff" stroke-width="3.807006000718056" stroke-linecap="round"></line><line x1="108.9814320469567" x2="108.9814320469567" y1="67.05323352193813" y2="96.85299410540686" stroke="#ffffff" stroke-width="3.807006000718056" stroke-linecap="round"></line><line x1="108.9814320469567" x2="108.9814320469567" y1="-57.94676647806188" y2="-28.147005894593136" stroke="#ffffff" stroke-width="3.807006000718056" stroke-linecap="round"></line><line x1="108.9814320469567" x2="108.9814320469567" y1="-182.94676647806187" y2="-153.14700589459312" stroke="#ffffff" stroke-width="3.807006000718056" stroke-linecap="round"></line><line x1="108.9814320469567" x2="108.9814320469567" y1="-307.9467664780619" y2="-278.1470058945931" stroke="#ffffff" stroke-width="3.807006000718056" stroke-linecap="round"></line><line x1="-6.88782240980319" x2="-6.88782240980319" y1="198.77641219155555" y2="286.00832665444403" stroke="#ffffff" stroke-width="3.2204062578238712" stroke-linecap="round"></line><line x1="-6.88782240980319" x2="-6.88782240980319" y1="73.77641219155554" y2="161.00832665444403" stroke="#ffffff" stroke-width="3.2204062578238712" stroke-linecap="round"></line><line x1="-6.88782240980319" x2="-6.88782240980319" y1="-51.223587808444464" y2="36.00832665444404" stroke="#ffffff" stroke-width="3.2204062578238712" stroke-linecap="round"></line><line x1="-6.88782240980319" x2="-6.88782240980319" y1="-176.22358780844445" y2="-88.99167334555597" stroke="#ffffff" stroke-width="3.2204062578238712" stroke-linecap="round"></line><line x1="-6.88782240980319" x2="-6.88782240980319" y1="-301.22358780844445" y2="-213.99167334555597" stroke="#ffffff" stroke-width="3.2204062578238712" stroke-linecap="round"></line><line x1="-29.737745566230423" x2="-29.737745566230423" y1="241.81650127418175" y2="298.83154391535106" stroke="#ffffff" stroke-width="4.140699030659364" stroke-linecap="round"></line><line x1="-29.737745566230423" x2="-29.737745566230423" y1="116.81650127418175" y2="173.83154391535103" stroke="#ffffff" stroke-width="4.140699030659364" stroke-linecap="round"></line><line x1="-29.737745566230423" x2="-29.737745566230423" y1="-8.18349872581825" y2="48.831543915351034" stroke="#ffffff" stroke-width="4.140699030659364" stroke-linecap="round"></line><line x1="-29.737745566230423" x2="-29.737745566230423" y1="-133.18349872581825" y2="-76.16845608464897" stroke="#ffffff" stroke-width="4.140699030659364" stroke-linecap="round"></line><line x1="-29.737745566230423" x2="-29.737745566230423" y1="-258.18349872581825" y2="-201.16845608464897" stroke="#ffffff" stroke-width="4.140699030659364" stroke-linecap="round"></line><line x1="78.09095422787341" x2="78.09095422787341" y1="231.84274009675838" y2="314.82575400529595" stroke="#ffffff" stroke-width="0.04404792645272271" stroke-linecap="round"></line><line x1="78.09095422787341" x2="78.09095422787341" y1="106.84274009675838" y2="189.82575400529595" stroke="#ffffff" stroke-width="0.04404792645272271" stroke-linecap="round"></line><line x1="78.09095422787341" x2="78.09095422787341" y1="-18.15725990324163" y2="64.82575400529593" stroke="#ffffff" stroke-width="0.04404792645272271" stroke-linecap="round"></line><line x1="78.09095422787341" x2="78.09095422787341" y1="-143.15725990324162" y2="-60.174245994704066" stroke="#ffffff" stroke-width="0.04404792645272271" stroke-linecap="round"></line><line x1="78.09095422787341" x2="78.09095422787341" y1="-268.15725990324165" y2="-185.17424599470405" stroke="#ffffff" stroke-width="0.04404792645272271" stroke-linecap="round"></line><line x1="-65.71986456690038" x2="-65.71986456690038" y1="252.74977463531258" y2="288.11908053003543" stroke="#ffffff" stroke-width="1.8155546239373233" stroke-linecap="round"></line><line x1="-65.71986456690038" x2="-65.71986456690038" y1="127.74977463531256" y2="163.11908053003543" stroke="#ffffff" stroke-width="1.8155546239373233" stroke-linecap="round"></line><line x1="-65.71986456690038" x2="-65.71986456690038" y1="2.749774635312563" y2="38.11908053003545" stroke="#ffffff" stroke-width="1.8155546239373233" stroke-linecap="round"></line><line x1="-65.71986456690038" x2="-65.71986456690038" y1="-122.25022536468744" y2="-86.88091946996455" stroke="#ffffff" stroke-width="1.8155546239373233" stroke-linecap="round"></line><line x1="-65.71986456690038" x2="-65.71986456690038" y1="-247.25022536468742" y2="-211.88091946996457" stroke="#ffffff" stroke-width="1.8155546239373233" stroke-linecap="round"></line><line x1="93.63539548829746" x2="93.63539548829746" y1="299.4057830773701" y2="327.65850320398425" stroke="#ffffff" stroke-width="2.9697783309134618" stroke-linecap="round"></line><line x1="93.63539548829746" x2="93.63539548829746" y1="174.40578307737007" y2="202.65850320398425" stroke="#ffffff" stroke-width="2.9697783309134618" stroke-linecap="round"></line><line x1="93.63539548829746" x2="93.63539548829746" y1="49.40578307737006" y2="77.65850320398427" stroke="#ffffff" stroke-width="2.9697783309134618" stroke-linecap="round"></line><line x1="93.63539548829746" x2="93.63539548829746" y1="-75.59421692262994" y2="-47.34149679601573" stroke="#ffffff" stroke-width="2.9697783309134618" stroke-linecap="round"></line><line x1="93.63539548829746" x2="93.63539548829746" y1="-200.59421692262993" y2="-172.34149679601575" stroke="#ffffff" stroke-width="2.9697783309134618" stroke-linecap="round"></line><line x1="19.71749610394168" x2="19.71749610394168" y1="312.19774036090394" y2="385.23390320940774" stroke="#ffffff" stroke-width="0.2819522299355226" stroke-linecap="round"></line><line x1="19.71749610394168" x2="19.71749610394168" y1="187.19774036090394" y2="260.23390320940774" stroke="#ffffff" stroke-width="0.2819522299355226" stroke-linecap="round"></line><line x1="19.71749610394168" x2="19.71749610394168" y1="62.19774036090392" y2="135.23390320940774" stroke="#ffffff" stroke-width="0.2819522299355226" stroke-linecap="round"></line><line x1="19.71749610394168" x2="19.71749610394168" y1="-62.80225963909608" y2="10.233903209407742" stroke="#ffffff" stroke-width="0.2819522299355226" stroke-linecap="round"></line><line x1="19.71749610394168" x2="19.71749610394168" y1="-187.80225963909606" y2="-114.76609679059226" stroke="#ffffff" stroke-width="0.2819522299355226" stroke-linecap="round"></line><line x1="-76.32948685865387" x2="-76.32948685865387" y1="293.6043481545146" y2="321.1795285803403" stroke="#ffffff" stroke-width="1.4316257693854617" stroke-linecap="round"></line><line x1="-76.32948685865387" x2="-76.32948685865387" y1="168.6043481545146" y2="196.17952858034027" stroke="#ffffff" stroke-width="1.4316257693854617" stroke-linecap="round"></line><line x1="-76.32948685865387" x2="-76.32948685865387" y1="43.60434815451461" y2="71.17952858034027" stroke="#ffffff" stroke-width="1.4316257693854617" stroke-linecap="round"></line><line x1="-76.32948685865387" x2="-76.32948685865387" y1="-81.39565184548539" y2="-53.820471419659725" stroke="#ffffff" stroke-width="1.4316257693854617" stroke-linecap="round"></line><line x1="-76.32948685865387" x2="-76.32948685865387" y1="-206.3956518454854" y2="-178.82047141965973" stroke="#ffffff" stroke-width="1.4316257693854617" stroke-linecap="round"></line><line x1="-48.497449582821666" x2="-48.497449582821666" y1="261.4327503870648" y2="313.46114480120104" stroke="#ffffff" stroke-width="2.828652071313369" stroke-linecap="round"></line><line x1="-48.497449582821666" x2="-48.497449582821666" y1="136.43275038706483" y2="188.46114480120107" stroke="#ffffff" stroke-width="2.828652071313369" stroke-linecap="round"></line><line x1="-48.497449582821666" x2="-48.497449582821666" y1="11.432750387064816" y2="63.461144801201065" stroke="#ffffff" stroke-width="2.828652071313369" stroke-linecap="round"></line><line x1="-48.497449582821666" x2="-48.497449582821666" y1="-113.56724961293519" y2="-61.538855198798935" stroke="#ffffff" stroke-width="2.828652071313369" stroke-linecap="round"></line><line x1="-48.497449582821666" x2="-48.497449582821666" y1="-238.56724961293517" y2="-186.53885519879893" stroke="#ffffff" stroke-width="2.828652071313369" stroke-linecap="round"></line><line x1="-61.05067052048118" x2="-61.05067052048118" y1="310.4864242839741" y2="364.1820308735147" stroke="#ffffff" stroke-width="4.303500582335882" stroke-linecap="round"></line><line x1="-61.05067052048118" x2="-61.05067052048118" y1="185.4864242839741" y2="239.1820308735147" stroke="#ffffff" stroke-width="4.303500582335882" stroke-linecap="round"></line><line x1="-61.05067052048118" x2="-61.05067052048118" y1="60.4864242839741" y2="114.18203087351469" stroke="#ffffff" stroke-width="4.303500582335882" stroke-linecap="round"></line><line x1="-61.05067052048118" x2="-61.05067052048118" y1="-64.5135757160259" y2="-10.817969126485309" stroke="#ffffff" stroke-width="4.303500582335882" stroke-linecap="round"></line><line x1="-61.05067052048118" x2="-61.05067052048118" y1="-189.5135757160259" y2="-135.8179691264853" stroke="#ffffff" stroke-width="4.303500582335882" stroke-linecap="round"></line><line x1="-133.7328567706632" x2="-133.7328567706632" y1="240.05927144663605" y2="280.2757973709464" stroke="#ffffff" stroke-width="0.16940069214975484" stroke-linecap="round"></line><line x1="-133.7328567706632" x2="-133.7328567706632" y1="115.05927144663605" y2="155.2757973709464" stroke="#ffffff" stroke-width="0.16940069214975484" stroke-linecap="round"></line><line x1="-133.7328567706632" x2="-133.7328567706632" y1="-9.940728553363948" y2="30.275797370946396" stroke="#ffffff" stroke-width="0.16940069214975484" stroke-linecap="round"></line><line x1="-133.7328567706632" x2="-133.7328567706632" y1="-134.94072855336395" y2="-94.72420262905361" stroke="#ffffff" stroke-width="0.16940069214975484" stroke-linecap="round"></line><line x1="-133.7328567706632" x2="-133.7328567706632" y1="-259.94072855336395" y2="-219.7242026290536" stroke="#ffffff" stroke-width="0.16940069214975484" stroke-linecap="round"></line><line x1="38.442629254118216" x2="38.442629254118216" y1="241.94388665426962" y2="267.78703452793013" stroke="#ffffff" stroke-width="4.024477425321299" stroke-linecap="round"></line><line x1="38.442629254118216" x2="38.442629254118216" y1="116.9438866542696" y2="142.78703452793013" stroke="#ffffff" stroke-width="4.024477425321299" stroke-linecap="round"></line><line x1="38.442629254118216" x2="38.442629254118216" y1="-8.056113345730392" y2="17.787034527930132" stroke="#ffffff" stroke-width="4.024477425321299" stroke-linecap="round"></line><line x1="38.442629254118216" x2="38.442629254118216" y1="-133.05611334573038" y2="-107.21296547206987" stroke="#ffffff" stroke-width="4.024477425321299" stroke-linecap="round"></line><line x1="38.442629254118216" x2="38.442629254118216" y1="-258.0561133457304" y2="-232.21296547206987" stroke="#ffffff" stroke-width="4.024477425321299" stroke-linecap="round"></line><line x1="56.663533786281135" x2="56.663533786281135" y1="309.3113970970162" y2="386.2421218494071" stroke="#ffffff" stroke-width="0.34327355890722444" stroke-linecap="round"></line><line x1="56.663533786281135" x2="56.663533786281135" y1="184.3113970970162" y2="261.2421218494071" stroke="#ffffff" stroke-width="0.34327355890722444" stroke-linecap="round"></line><line x1="56.663533786281135" x2="56.663533786281135" y1="59.31139709701619" y2="136.24212184940714" stroke="#ffffff" stroke-width="0.34327355890722444" stroke-linecap="round"></line><line x1="56.663533786281135" x2="56.663533786281135" y1="-65.6886029029838" y2="11.242121849407141" stroke="#ffffff" stroke-width="0.34327355890722444" stroke-linecap="round"></line><line x1="56.663533786281135" x2="56.663533786281135" y1="-190.6886029029838" y2="-113.75787815059286" stroke="#ffffff" stroke-width="0.34327355890722444" stroke-linecap="round"></line><line x1="-79.99672063543649" x2="-79.99672063543649" y1="275.0246534773549" y2="338.92574588986196" stroke="#ffffff" stroke-width="4.34533564360693" stroke-linecap="round"></line><line x1="-79.99672063543649" x2="-79.99672063543649" y1="150.02465347735492" y2="213.92574588986196" stroke="#ffffff" stroke-width="4.34533564360693" stroke-linecap="round"></line><line x1="-79.99672063543649" x2="-79.99672063543649" y1="25.024653477354914" y2="88.92574588986194" stroke="#ffffff" stroke-width="4.34533564360693" stroke-linecap="round"></line><line x1="-79.99672063543649" x2="-79.99672063543649" y1="-99.97534652264508" y2="-36.07425411013806" stroke="#ffffff" stroke-width="4.34533564360693" stroke-linecap="round"></line><line x1="-79.99672063543649" x2="-79.99672063543649" y1="-224.97534652264508" y2="-161.07425411013804" stroke="#ffffff" stroke-width="4.34533564360693" stroke-linecap="round"></line><line x1="-87.05138334492317" x2="-87.05138334492317" y1="253.05115330247074" y2="311.50376708387364" stroke="#ffffff" stroke-width="1.5812098458444512" stroke-linecap="round"></line><line x1="-87.05138334492317" x2="-87.05138334492317" y1="128.05115330247074" y2="186.50376708387364" stroke="#ffffff" stroke-width="1.5812098458444512" stroke-linecap="round"></line><line x1="-87.05138334492317" x2="-87.05138334492317" y1="3.051153302470744" y2="61.503767083873626" stroke="#ffffff" stroke-width="1.5812098458444512" stroke-linecap="round"></line><line x1="-87.05138334492317" x2="-87.05138334492317" y1="-121.94884669752926" y2="-63.496232916126374" stroke="#ffffff" stroke-width="1.5812098458444512" stroke-linecap="round"></line><line x1="-87.05138334492317" x2="-87.05138334492317" y1="-246.94884669752926" y2="-188.49623291612636" stroke="#ffffff" stroke-width="1.5812098458444512" stroke-linecap="round"></line><line x1="117.7508701492401" x2="117.7508701492401" y1="292.1397643406932" y2="344.0940047646077" stroke="#ffffff" stroke-width="3.7891055825382525" stroke-linecap="round"></line><line x1="117.7508701492401" x2="117.7508701492401" y1="167.1397643406932" y2="219.09400476460766" stroke="#ffffff" stroke-width="3.7891055825382525" stroke-linecap="round"></line><line x1="117.7508701492401" x2="117.7508701492401" y1="42.13976434069319" y2="94.09400476460766" stroke="#ffffff" stroke-width="3.7891055825382525" stroke-linecap="round"></line><line x1="117.7508701492401" x2="117.7508701492401" y1="-82.86023565930681" y2="-30.90599523539234" stroke="#ffffff" stroke-width="3.7891055825382525" stroke-linecap="round"></line><line x1="117.7508701492401" x2="117.7508701492401" y1="-207.8602356593068" y2="-155.90599523539234" stroke="#ffffff" stroke-width="3.7891055825382525" stroke-linecap="round"></line><line x1="62.37193960597514" x2="62.37193960597514" y1="227.70329541502596" y2="276.56880849908" stroke="#ffffff" stroke-width="1.3521853787587723" stroke-linecap="round"></line><line x1="62.37193960597514" x2="62.37193960597514" y1="102.70329541502596" y2="151.56880849907995" stroke="#ffffff" stroke-width="1.3521853787587723" stroke-linecap="round"></line><line x1="62.37193960597514" x2="62.37193960597514" y1="-22.29670458497404" y2="26.56880849907995" stroke="#ffffff" stroke-width="1.3521853787587723" stroke-linecap="round"></line><line x1="62.37193960597514" x2="62.37193960597514" y1="-147.29670458497404" y2="-98.43119150092005" stroke="#ffffff" stroke-width="1.3521853787587723" stroke-linecap="round"></line><line x1="62.37193960597514" x2="62.37193960597514" y1="-272.29670458497407" y2="-223.43119150092005" stroke="#ffffff" stroke-width="1.3521853787587723" stroke-linecap="round"></line></g>
      <g class="ld ld-speed-dash-2"><line x1="36.189117007437446" x2="36.189117007437446" y1="218.36170199317596" y2="290.10235142083235" stroke="#ffffff" stroke-width="1.141991103332195" stroke-linecap="round"></line><line x1="36.189117007437446" x2="36.189117007437446" y1="93.36170199317596" y2="165.10235142083238" stroke="#ffffff" stroke-width="1.141991103332195" stroke-linecap="round"></line><line x1="36.189117007437446" x2="36.189117007437446" y1="-31.63829800682405" y2="40.10235142083237" stroke="#ffffff" stroke-width="1.141991103332195" stroke-linecap="round"></line><line x1="36.189117007437446" x2="36.189117007437446" y1="-156.63829800682404" y2="-84.89764857916762" stroke="#ffffff" stroke-width="1.141991103332195" stroke-linecap="round"></line><line x1="36.189117007437446" x2="36.189117007437446" y1="-281.6382980068241" y2="-209.89764857916762" stroke="#ffffff" stroke-width="1.141991103332195" stroke-linecap="round"></line><line x1="-79.01154656734752" x2="-79.01154656734752" y1="273.431527694484" y2="339.1392961950988" stroke="#ffffff" stroke-width="1.3151203518848942" stroke-linecap="round"></line><line x1="-79.01154656734752" x2="-79.01154656734752" y1="148.43152769448395" y2="214.13929619509878" stroke="#ffffff" stroke-width="1.3151203518848942" stroke-linecap="round"></line><line x1="-79.01154656734752" x2="-79.01154656734752" y1="23.43152769448395" y2="89.13929619509877" stroke="#ffffff" stroke-width="1.3151203518848942" stroke-linecap="round"></line><line x1="-79.01154656734752" x2="-79.01154656734752" y1="-101.56847230551605" y2="-35.860703804901235" stroke="#ffffff" stroke-width="1.3151203518848942" stroke-linecap="round"></line><line x1="-79.01154656734752" x2="-79.01154656734752" y1="-226.56847230551605" y2="-160.86070380490122" stroke="#ffffff" stroke-width="1.3151203518848942" stroke-linecap="round"></line><line x1="25.770923727512056" x2="25.770923727512056" y1="275.261294514003" y2="304.2006092824949" stroke="#ffffff" stroke-width="1.138298357644243" stroke-linecap="round"></line><line x1="25.770923727512056" x2="25.770923727512056" y1="150.26129451400297" y2="179.2006092824949" stroke="#ffffff" stroke-width="1.138298357644243" stroke-linecap="round"></line><line x1="25.770923727512056" x2="25.770923727512056" y1="25.26129451400297" y2="54.20060928249491" stroke="#ffffff" stroke-width="1.138298357644243" stroke-linecap="round"></line><line x1="25.770923727512056" x2="25.770923727512056" y1="-99.73870548599703" y2="-70.79939071750509" stroke="#ffffff" stroke-width="1.138298357644243" stroke-linecap="round"></line><line x1="25.770923727512056" x2="25.770923727512056" y1="-224.73870548599703" y2="-195.7993907175051" stroke="#ffffff" stroke-width="1.138298357644243" stroke-linecap="round"></line><line x1="-15.018741909415692" x2="-15.018741909415692" y1="239.33250875763295" y2="315.63244962498777" stroke="#ffffff" stroke-width="3.6491823814675173" stroke-linecap="round"></line><line x1="-15.018741909415692" x2="-15.018741909415692" y1="114.33250875763295" y2="190.63244962498777" stroke="#ffffff" stroke-width="3.6491823814675173" stroke-linecap="round"></line><line x1="-15.018741909415692" x2="-15.018741909415692" y1="-10.667491242367044" y2="65.63244962498779" stroke="#ffffff" stroke-width="3.6491823814675173" stroke-linecap="round"></line><line x1="-15.018741909415692" x2="-15.018741909415692" y1="-135.66749124236705" y2="-59.367550375012215" stroke="#ffffff" stroke-width="3.6491823814675173" stroke-linecap="round"></line><line x1="-15.018741909415692" x2="-15.018741909415692" y1="-260.667491242367" y2="-184.36755037501223" stroke="#ffffff" stroke-width="3.6491823814675173" stroke-linecap="round"></line><line x1="-107.0269832231028" x2="-107.0269832231028" y1="211.39696196106266" y2="288.6880300941348" stroke="#ffffff" stroke-width="4.1100341696241385" stroke-linecap="round"></line><line x1="-107.0269832231028" x2="-107.0269832231028" y1="86.39696196106266" y2="163.68803009413477" stroke="#ffffff" stroke-width="4.1100341696241385" stroke-linecap="round"></line><line x1="-107.0269832231028" x2="-107.0269832231028" y1="-38.603038038937335" y2="38.68803009413477" stroke="#ffffff" stroke-width="4.1100341696241385" stroke-linecap="round"></line><line x1="-107.0269832231028" x2="-107.0269832231028" y1="-163.60303803893734" y2="-86.31196990586523" stroke="#ffffff" stroke-width="4.1100341696241385" stroke-linecap="round"></line><line x1="-107.0269832231028" x2="-107.0269832231028" y1="-288.6030380389373" y2="-211.31196990586523" stroke="#ffffff" stroke-width="4.1100341696241385" stroke-linecap="round"></line><line x1="128.27261625181367" x2="128.27261625181367" y1="226.77343502537443" y2="266.1247636503614" stroke="#ffffff" stroke-width="4.215784725585632" stroke-linecap="round"></line><line x1="128.27261625181367" x2="128.27261625181367" y1="101.77343502537443" y2="141.1247636503614" stroke="#ffffff" stroke-width="4.215784725585632" stroke-linecap="round"></line><line x1="128.27261625181367" x2="128.27261625181367" y1="-23.22656497462558" y2="16.124763650361384" stroke="#ffffff" stroke-width="4.215784725585632" stroke-linecap="round"></line><line x1="128.27261625181367" x2="128.27261625181367" y1="-148.22656497462557" y2="-108.87523634963861" stroke="#ffffff" stroke-width="4.215784725585632" stroke-linecap="round"></line><line x1="128.27261625181367" x2="128.27261625181367" y1="-273.2265649746256" y2="-233.8752363496386" stroke="#ffffff" stroke-width="4.215784725585632" stroke-linecap="round"></line><line x1="74.16441275024502" x2="74.16441275024502" y1="233.06598513218415" y2="284.87802373059196" stroke="#ffffff" stroke-width="3.867268208683532" stroke-linecap="round"></line><line x1="74.16441275024502" x2="74.16441275024502" y1="108.06598513218415" y2="159.87802373059193" stroke="#ffffff" stroke-width="3.867268208683532" stroke-linecap="round"></line><line x1="74.16441275024502" x2="74.16441275024502" y1="-16.934014867815844" y2="34.878023730591934" stroke="#ffffff" stroke-width="3.867268208683532" stroke-linecap="round"></line><line x1="74.16441275024502" x2="74.16441275024502" y1="-141.93401486781585" y2="-90.12197626940807" stroke="#ffffff" stroke-width="3.867268208683532" stroke-linecap="round"></line><line x1="74.16441275024502" x2="74.16441275024502" y1="-266.93401486781585" y2="-215.12197626940807" stroke="#ffffff" stroke-width="3.867268208683532" stroke-linecap="round"></line><line x1="-137.03999088885985" x2="-137.03999088885985" y1="267.0203693606178" y2="321.2410403873778" stroke="#ffffff" stroke-width="3.5360477866130156" stroke-linecap="round"></line><line x1="-137.03999088885985" x2="-137.03999088885985" y1="142.02036936061782" y2="196.24104038737778" stroke="#ffffff" stroke-width="3.5360477866130156" stroke-linecap="round"></line><line x1="-137.03999088885985" x2="-137.03999088885985" y1="17.02036936061782" y2="71.24104038737777" stroke="#ffffff" stroke-width="3.5360477866130156" stroke-linecap="round"></line><line x1="-137.03999088885985" x2="-137.03999088885985" y1="-107.97963063938218" y2="-53.758959612622235" stroke="#ffffff" stroke-width="3.5360477866130156" stroke-linecap="round"></line><line x1="-137.03999088885985" x2="-137.03999088885985" y1="-232.97963063938218" y2="-178.75895961262222" stroke="#ffffff" stroke-width="3.5360477866130156" stroke-linecap="round"></line><line x1="-61.24879582314822" x2="-61.24879582314822" y1="248.29546800115867" y2="282.8274869880993" stroke="#ffffff" stroke-width="1.0705401603330544" stroke-linecap="round"></line><line x1="-61.24879582314822" x2="-61.24879582314822" y1="123.29546800115868" y2="157.82748698809928" stroke="#ffffff" stroke-width="1.0705401603330544" stroke-linecap="round"></line><line x1="-61.24879582314822" x2="-61.24879582314822" y1="-1.7045319988413243" y2="32.82748698809927" stroke="#ffffff" stroke-width="1.0705401603330544" stroke-linecap="round"></line><line x1="-61.24879582314822" x2="-61.24879582314822" y1="-126.70453199884132" y2="-92.17251301190073" stroke="#ffffff" stroke-width="1.0705401603330544" stroke-linecap="round"></line><line x1="-61.24879582314822" x2="-61.24879582314822" y1="-251.70453199884133" y2="-217.17251301190072" stroke="#ffffff" stroke-width="1.0705401603330544" stroke-linecap="round"></line><line x1="67.51112957741205" x2="67.51112957741205" y1="240.21481101090265" y2="323.8961401812919" stroke="#ffffff" stroke-width="0.5634321673597287" stroke-linecap="round"></line><line x1="67.51112957741205" x2="67.51112957741205" y1="115.21481101090264" y2="198.8961401812919" stroke="#ffffff" stroke-width="0.5634321673597287" stroke-linecap="round"></line><line x1="67.51112957741205" x2="67.51112957741205" y1="-9.78518898909736" y2="73.8961401812919" stroke="#ffffff" stroke-width="0.5634321673597287" stroke-linecap="round"></line><line x1="67.51112957741205" x2="67.51112957741205" y1="-134.78518898909735" y2="-51.1038598187081" stroke="#ffffff" stroke-width="0.5634321673597287" stroke-linecap="round"></line><line x1="67.51112957741205" x2="67.51112957741205" y1="-259.7851889890974" y2="-176.1038598187081" stroke="#ffffff" stroke-width="0.5634321673597287" stroke-linecap="round"></line><line x1="-42.4894715642547" x2="-42.4894715642547" y1="214.2119794054688" y2="301.4371113257633" stroke="#ffffff" stroke-width="1.7906777356269676" stroke-linecap="round"></line><line x1="-42.4894715642547" x2="-42.4894715642547" y1="89.21197940546882" y2="176.4371113257633" stroke="#ffffff" stroke-width="1.7906777356269676" stroke-linecap="round"></line><line x1="-42.4894715642547" x2="-42.4894715642547" y1="-35.788020594531176" y2="51.437111325763304" stroke="#ffffff" stroke-width="1.7906777356269676" stroke-linecap="round"></line><line x1="-42.4894715642547" x2="-42.4894715642547" y1="-160.7880205945312" y2="-73.56288867423669" stroke="#ffffff" stroke-width="1.7906777356269676" stroke-linecap="round"></line><line x1="-42.4894715642547" x2="-42.4894715642547" y1="-285.7880205945312" y2="-198.5628886742367" stroke="#ffffff" stroke-width="1.7906777356269676" stroke-linecap="round"></line><line x1="-84.70715141064325" x2="-84.70715141064325" y1="250.4865367550734" y2="300.4681303812265" stroke="#ffffff" stroke-width="3.814158792578638" stroke-linecap="round"></line><line x1="-84.70715141064325" x2="-84.70715141064325" y1="125.48653675507337" y2="175.46813038122653" stroke="#ffffff" stroke-width="3.814158792578638" stroke-linecap="round"></line><line x1="-84.70715141064325" x2="-84.70715141064325" y1="0.48653675507337457" y2="50.46813038122653" stroke="#ffffff" stroke-width="3.814158792578638" stroke-linecap="round"></line><line x1="-84.70715141064325" x2="-84.70715141064325" y1="-124.51346324492663" y2="-74.53186961877347" stroke="#ffffff" stroke-width="3.814158792578638" stroke-linecap="round"></line><line x1="-84.70715141064325" x2="-84.70715141064325" y1="-249.5134632449266" y2="-199.53186961877347" stroke="#ffffff" stroke-width="3.814158792578638" stroke-linecap="round"></line><line x1="-132.7752346566587" x2="-132.7752346566587" y1="250.04208750470153" y2="307.6260750242074" stroke="#ffffff" stroke-width="0.590545306494592" stroke-linecap="round"></line><line x1="-132.7752346566587" x2="-132.7752346566587" y1="125.04208750470153" y2="182.6260750242074" stroke="#ffffff" stroke-width="0.590545306494592" stroke-linecap="round"></line><line x1="-132.7752346566587" x2="-132.7752346566587" y1="0.04208750470152678" y2="57.6260750242074" stroke="#ffffff" stroke-width="0.590545306494592" stroke-linecap="round"></line><line x1="-132.7752346566587" x2="-132.7752346566587" y1="-124.95791249529847" y2="-67.37392497579259" stroke="#ffffff" stroke-width="0.590545306494592" stroke-linecap="round"></line><line x1="-132.7752346566587" x2="-132.7752346566587" y1="-249.95791249529847" y2="-192.3739249757926" stroke="#ffffff" stroke-width="0.590545306494592" stroke-linecap="round"></line><line x1="-49.343501151543904" x2="-49.343501151543904" y1="272.38663597344726" y2="326.1289327801077" stroke="#ffffff" stroke-width="3.1560257235655396" stroke-linecap="round"></line><line x1="-49.343501151543904" x2="-49.343501151543904" y1="147.38663597344726" y2="201.12893278010768" stroke="#ffffff" stroke-width="3.1560257235655396" stroke-linecap="round"></line><line x1="-49.343501151543904" x2="-49.343501151543904" y1="22.386635973447255" y2="76.12893278010766" stroke="#ffffff" stroke-width="3.1560257235655396" stroke-linecap="round"></line><line x1="-49.343501151543904" x2="-49.343501151543904" y1="-102.61336402655274" y2="-48.87106721989234" stroke="#ffffff" stroke-width="3.1560257235655396" stroke-linecap="round"></line><line x1="-49.343501151543904" x2="-49.343501151543904" y1="-227.61336402655274" y2="-173.87106721989232" stroke="#ffffff" stroke-width="3.1560257235655396" stroke-linecap="round"></line><line x1="-6.6020166408375225" x2="-6.6020166408375225" y1="188.46172016041365" y2="237.82223358155335" stroke="#ffffff" stroke-width="2.5323609160226646" stroke-linecap="round"></line><line x1="-6.6020166408375225" x2="-6.6020166408375225" y1="63.461720160413655" y2="112.82223358155335" stroke="#ffffff" stroke-width="2.5323609160226646" stroke-linecap="round"></line><line x1="-6.6020166408375225" x2="-6.6020166408375225" y1="-61.538279839586345" y2="-12.177766418446652" stroke="#ffffff" stroke-width="2.5323609160226646" stroke-linecap="round"></line><line x1="-6.6020166408375225" x2="-6.6020166408375225" y1="-186.53827983958635" y2="-137.17776641844665" stroke="#ffffff" stroke-width="2.5323609160226646" stroke-linecap="round"></line><line x1="-6.6020166408375225" x2="-6.6020166408375225" y1="-311.5382798395863" y2="-262.17776641844665" stroke="#ffffff" stroke-width="2.5323609160226646" stroke-linecap="round"></line><line x1="-35.86387258684242" x2="-35.86387258684242" y1="244.66932642363665" y2="320.9660608677465" stroke="#ffffff" stroke-width="2.99789135421616" stroke-linecap="round"></line><line x1="-35.86387258684242" x2="-35.86387258684242" y1="119.66932642363665" y2="195.96606086774648" stroke="#ffffff" stroke-width="2.99789135421616" stroke-linecap="round"></line><line x1="-35.86387258684242" x2="-35.86387258684242" y1="-5.330673576363354" y2="70.96606086774646" stroke="#ffffff" stroke-width="2.99789135421616" stroke-linecap="round"></line><line x1="-35.86387258684242" x2="-35.86387258684242" y1="-130.33067357636335" y2="-54.033939132253536" stroke="#ffffff" stroke-width="2.99789135421616" stroke-linecap="round"></line><line x1="-35.86387258684242" x2="-35.86387258684242" y1="-255.33067357636335" y2="-179.03393913225352" stroke="#ffffff" stroke-width="2.99789135421616" stroke-linecap="round"></line><line x1="25.34508864020287" x2="25.34508864020287" y1="264.2917835067586" y2="317.50444605197725" stroke="#ffffff" stroke-width="0.8566247287006212" stroke-linecap="round"></line><line x1="25.34508864020287" x2="25.34508864020287" y1="139.29178350675855" y2="192.50444605197725" stroke="#ffffff" stroke-width="0.8566247287006212" stroke-linecap="round"></line><line x1="25.34508864020287" x2="25.34508864020287" y1="14.291783506758554" y2="67.50444605197727" stroke="#ffffff" stroke-width="0.8566247287006212" stroke-linecap="round"></line><line x1="25.34508864020287" x2="25.34508864020287" y1="-110.70821649324145" y2="-57.49555394802273" stroke="#ffffff" stroke-width="0.8566247287006212" stroke-linecap="round"></line><line x1="25.34508864020287" x2="25.34508864020287" y1="-235.70821649324145" y2="-182.49555394802275" stroke="#ffffff" stroke-width="0.8566247287006212" stroke-linecap="round"></line><line x1="40.6926266117479" x2="40.6926266117479" y1="262.2782162986373" y2="290.33528446828063" stroke="#ffffff" stroke-width="2.7193123906471914" stroke-linecap="round"></line><line x1="40.6926266117479" x2="40.6926266117479" y1="137.2782162986373" y2="165.3352844682806" stroke="#ffffff" stroke-width="2.7193123906471914" stroke-linecap="round"></line><line x1="40.6926266117479" x2="40.6926266117479" y1="12.27821629863729" y2="40.33528446828061" stroke="#ffffff" stroke-width="2.7193123906471914" stroke-linecap="round"></line><line x1="40.6926266117479" x2="40.6926266117479" y1="-112.72178370136271" y2="-84.6647155317194" stroke="#ffffff" stroke-width="2.7193123906471914" stroke-linecap="round"></line><line x1="40.6926266117479" x2="40.6926266117479" y1="-237.7217837013627" y2="-209.6647155317194" stroke="#ffffff" stroke-width="2.7193123906471914" stroke-linecap="round"></line><line x1="-131.93951333831447" x2="-131.93951333831447" y1="271.80802092500403" y2="299.9215825645561" stroke="#ffffff" stroke-width="0.5833805125454805" stroke-linecap="round"></line><line x1="-131.93951333831447" x2="-131.93951333831447" y1="146.808020925004" y2="174.9215825645561" stroke="#ffffff" stroke-width="0.5833805125454805" stroke-linecap="round"></line><line x1="-131.93951333831447" x2="-131.93951333831447" y1="21.808020925004" y2="49.92158256455609" stroke="#ffffff" stroke-width="0.5833805125454805" stroke-linecap="round"></line><line x1="-131.93951333831447" x2="-131.93951333831447" y1="-103.191979074996" y2="-75.07841743544391" stroke="#ffffff" stroke-width="0.5833805125454805" stroke-linecap="round"></line><line x1="-131.93951333831447" x2="-131.93951333831447" y1="-228.191979074996" y2="-200.0784174354439" stroke="#ffffff" stroke-width="0.5833805125454805" stroke-linecap="round"></line><line x1="138.29666270327527" x2="138.29666270327527" y1="202.70332726840948" y2="278.46711907572274" stroke="#ffffff" stroke-width="4.823158847710855" stroke-linecap="round"></line><line x1="138.29666270327527" x2="138.29666270327527" y1="77.70332726840948" y2="153.46711907572276" stroke="#ffffff" stroke-width="4.823158847710855" stroke-linecap="round"></line><line x1="138.29666270327527" x2="138.29666270327527" y1="-47.29667273159052" y2="28.467119075722756" stroke="#ffffff" stroke-width="4.823158847710855" stroke-linecap="round"></line><line x1="138.29666270327527" x2="138.29666270327527" y1="-172.29667273159052" y2="-96.53288092427724" stroke="#ffffff" stroke-width="4.823158847710855" stroke-linecap="round"></line><line x1="138.29666270327527" x2="138.29666270327527" y1="-297.29667273159055" y2="-221.53288092427724" stroke="#ffffff" stroke-width="4.823158847710855" stroke-linecap="round"></line><line x1="-30.712890296993393" x2="-30.712890296993393" y1="187.90461171543856" y2="259.4884227959232" stroke="#ffffff" stroke-width="4.208487892436484" stroke-linecap="round"></line><line x1="-30.712890296993393" x2="-30.712890296993393" y1="62.90461171543857" y2="134.4884227959232" stroke="#ffffff" stroke-width="4.208487892436484" stroke-linecap="round"></line><line x1="-30.712890296993393" x2="-30.712890296993393" y1="-62.09538828456143" y2="9.488422795923206" stroke="#ffffff" stroke-width="4.208487892436484" stroke-linecap="round"></line><line x1="-30.712890296993393" x2="-30.712890296993393" y1="-187.09538828456144" y2="-115.51157720407679" stroke="#ffffff" stroke-width="4.208487892436484" stroke-linecap="round"></line><line x1="-30.712890296993393" x2="-30.712890296993393" y1="-312.0953882845614" y2="-240.5115772040768" stroke="#ffffff" stroke-width="4.208487892436484" stroke-linecap="round"></line><line x1="-67.34055653600839" x2="-67.34055653600839" y1="202.37159233663826" y2="244.54838108334044" stroke="#ffffff" stroke-width="3.2762412064314494" stroke-linecap="round"></line><line x1="-67.34055653600839" x2="-67.34055653600839" y1="77.37159233663826" y2="119.54838108334044" stroke="#ffffff" stroke-width="3.2762412064314494" stroke-linecap="round"></line><line x1="-67.34055653600839" x2="-67.34055653600839" y1="-47.62840766336174" y2="-5.451618916659559" stroke="#ffffff" stroke-width="3.2762412064314494" stroke-linecap="round"></line><line x1="-67.34055653600839" x2="-67.34055653600839" y1="-172.62840766336174" y2="-130.45161891665956" stroke="#ffffff" stroke-width="3.2762412064314494" stroke-linecap="round"></line><line x1="-67.34055653600839" x2="-67.34055653600839" y1="-297.6284076633617" y2="-255.45161891665956" stroke="#ffffff" stroke-width="3.2762412064314494" stroke-linecap="round"></line><line x1="57.764562834683275" x2="57.764562834683275" y1="303.34891428775245" y2="385.1959101880585" stroke="#ffffff" stroke-width="1.1875679361929337" stroke-linecap="round"></line><line x1="57.764562834683275" x2="57.764562834683275" y1="178.34891428775245" y2="260.1959101880585" stroke="#ffffff" stroke-width="1.1875679361929337" stroke-linecap="round"></line><line x1="57.764562834683275" x2="57.764562834683275" y1="53.34891428775246" y2="135.19591018805855" stroke="#ffffff" stroke-width="1.1875679361929337" stroke-linecap="round"></line><line x1="57.764562834683275" x2="57.764562834683275" y1="-71.65108571224755" y2="10.195910188058548" stroke="#ffffff" stroke-width="1.1875679361929337" stroke-linecap="round"></line><line x1="57.764562834683275" x2="57.764562834683275" y1="-196.65108571224755" y2="-114.80408981194145" stroke="#ffffff" stroke-width="1.1875679361929337" stroke-linecap="round"></line><line x1="-46.16727472242595" x2="-46.16727472242595" y1="193.18283371073676" y2="235.07940527771655" stroke="#ffffff" stroke-width="4.2646394917948225" stroke-linecap="round"></line><line x1="-46.16727472242595" x2="-46.16727472242595" y1="68.18283371073674" y2="110.07940527771655" stroke="#ffffff" stroke-width="4.2646394917948225" stroke-linecap="round"></line><line x1="-46.16727472242595" x2="-46.16727472242595" y1="-56.817166289263255" y2="-14.920594722283461" stroke="#ffffff" stroke-width="4.2646394917948225" stroke-linecap="round"></line><line x1="-46.16727472242595" x2="-46.16727472242595" y1="-181.81716628926324" y2="-139.92059472228345" stroke="#ffffff" stroke-width="4.2646394917948225" stroke-linecap="round"></line><line x1="-46.16727472242595" x2="-46.16727472242595" y1="-306.81716628926324" y2="-264.92059472228345" stroke="#ffffff" stroke-width="4.2646394917948225" stroke-linecap="round"></line><line x1="-39.24697956764594" x2="-39.24697956764594" y1="229.4585235934771" y2="281.427560663175" stroke="#ffffff" stroke-width="1.0601496793732013" stroke-linecap="round"></line><line x1="-39.24697956764594" x2="-39.24697956764594" y1="104.4585235934771" y2="156.42756066317494" stroke="#ffffff" stroke-width="1.0601496793732013" stroke-linecap="round"></line><line x1="-39.24697956764594" x2="-39.24697956764594" y1="-20.5414764065229" y2="31.427560663174948" stroke="#ffffff" stroke-width="1.0601496793732013" stroke-linecap="round"></line><line x1="-39.24697956764594" x2="-39.24697956764594" y1="-145.5414764065229" y2="-93.57243933682506" stroke="#ffffff" stroke-width="1.0601496793732013" stroke-linecap="round"></line><line x1="-39.24697956764594" x2="-39.24697956764594" y1="-270.5414764065229" y2="-218.57243933682506" stroke="#ffffff" stroke-width="1.0601496793732013" stroke-linecap="round"></line><line x1="131.67810843955328" x2="131.67810843955328" y1="218.83455166017967" y2="270.59565962080075" stroke="#ffffff" stroke-width="4.968576681834219" stroke-linecap="round"></line><line x1="131.67810843955328" x2="131.67810843955328" y1="93.83455166017967" y2="145.59565962080072" stroke="#ffffff" stroke-width="4.968576681834219" stroke-linecap="round"></line><line x1="131.67810843955328" x2="131.67810843955328" y1="-31.165448339820323" y2="20.595659620800724" stroke="#ffffff" stroke-width="4.968576681834219" stroke-linecap="round"></line><line x1="131.67810843955328" x2="131.67810843955328" y1="-156.16544833982033" y2="-104.40434037919928" stroke="#ffffff" stroke-width="4.968576681834219" stroke-linecap="round"></line><line x1="131.67810843955328" x2="131.67810843955328" y1="-281.16544833982033" y2="-229.40434037919928" stroke="#ffffff" stroke-width="4.968576681834219" stroke-linecap="round"></line><line x1="-56.55621961938644" x2="-56.55621961938644" y1="193.1279607539945" y2="231.49588009668668" stroke="#ffffff" stroke-width="4.485686382441889" stroke-linecap="round"></line><line x1="-56.55621961938644" x2="-56.55621961938644" y1="68.1279607539945" y2="106.49588009668669" stroke="#ffffff" stroke-width="4.485686382441889" stroke-linecap="round"></line><line x1="-56.55621961938644" x2="-56.55621961938644" y1="-56.87203924600551" y2="-18.50411990331331" stroke="#ffffff" stroke-width="4.485686382441889" stroke-linecap="round"></line><line x1="-56.55621961938644" x2="-56.55621961938644" y1="-181.8720392460055" y2="-143.50411990331332" stroke="#ffffff" stroke-width="4.485686382441889" stroke-linecap="round"></line><line x1="-56.55621961938644" x2="-56.55621961938644" y1="-306.8720392460055" y2="-268.5041199033133" stroke="#ffffff" stroke-width="4.485686382441889" stroke-linecap="round"></line><line x1="35.913370665064875" x2="35.913370665064875" y1="310.474085948281" y2="378.06987990839764" stroke="#ffffff" stroke-width="4.483891677213525" stroke-linecap="round"></line><line x1="35.913370665064875" x2="35.913370665064875" y1="185.474085948281" y2="253.0698799083976" stroke="#ffffff" stroke-width="4.483891677213525" stroke-linecap="round"></line><line x1="35.913370665064875" x2="35.913370665064875" y1="60.474085948280994" y2="128.0698799083976" stroke="#ffffff" stroke-width="4.483891677213525" stroke-linecap="round"></line><line x1="35.913370665064875" x2="35.913370665064875" y1="-64.52591405171901" y2="3.06987990839761" stroke="#ffffff" stroke-width="4.483891677213525" stroke-linecap="round"></line><line x1="35.913370665064875" x2="35.913370665064875" y1="-189.525914051719" y2="-121.93012009160239" stroke="#ffffff" stroke-width="4.483891677213525" stroke-linecap="round"></line><line x1="72.24523818930108" x2="72.24523818930108" y1="298.5069699391775" y2="380.8049590965346" stroke="#ffffff" stroke-width="4.108592259881327" stroke-linecap="round"></line><line x1="72.24523818930108" x2="72.24523818930108" y1="173.5069699391775" y2="255.80495909653462" stroke="#ffffff" stroke-width="4.108592259881327" stroke-linecap="round"></line><line x1="72.24523818930108" x2="72.24523818930108" y1="48.506969939177495" y2="130.80495909653462" stroke="#ffffff" stroke-width="4.108592259881327" stroke-linecap="round"></line><line x1="72.24523818930108" x2="72.24523818930108" y1="-76.4930300608225" y2="5.804959096534617" stroke="#ffffff" stroke-width="4.108592259881327" stroke-linecap="round"></line><line x1="72.24523818930108" x2="72.24523818930108" y1="-201.4930300608225" y2="-119.19504090346538" stroke="#ffffff" stroke-width="4.108592259881327" stroke-linecap="round"></line><line x1="-139.56211536576748" x2="-139.56211536576748" y1="291.8989624374077" y2="343.39437754601147" stroke="#ffffff" stroke-width="1.2077726824530344" stroke-linecap="round"></line><line x1="-139.56211536576748" x2="-139.56211536576748" y1="166.8989624374077" y2="218.3943775460115" stroke="#ffffff" stroke-width="1.2077726824530344" stroke-linecap="round"></line><line x1="-139.56211536576748" x2="-139.56211536576748" y1="41.898962437407704" y2="93.3943775460115" stroke="#ffffff" stroke-width="1.2077726824530344" stroke-linecap="round"></line><line x1="-139.56211536576748" x2="-139.56211536576748" y1="-83.1010375625923" y2="-31.605622453988502" stroke="#ffffff" stroke-width="1.2077726824530344" stroke-linecap="round"></line><line x1="-139.56211536576748" x2="-139.56211536576748" y1="-208.1010375625923" y2="-156.6056224539885" stroke="#ffffff" stroke-width="1.2077726824530344" stroke-linecap="round"></line><line x1="133.80519260460088" x2="133.80519260460088" y1="297.73479493135886" y2="372.2733036579758" stroke="#ffffff" stroke-width="3.3395556226859515" stroke-linecap="round"></line><line x1="133.80519260460088" x2="133.80519260460088" y1="172.73479493135886" y2="247.2733036579758" stroke="#ffffff" stroke-width="3.3395556226859515" stroke-linecap="round"></line><line x1="133.80519260460088" x2="133.80519260460088" y1="47.73479493135888" y2="122.27330365797579" stroke="#ffffff" stroke-width="3.3395556226859515" stroke-linecap="round"></line><line x1="133.80519260460088" x2="133.80519260460088" y1="-77.26520506864112" y2="-2.726696342024212" stroke="#ffffff" stroke-width="3.3395556226859515" stroke-linecap="round"></line><line x1="133.80519260460088" x2="133.80519260460088" y1="-202.26520506864114" y2="-127.72669634202421" stroke="#ffffff" stroke-width="3.3395556226859515" stroke-linecap="round"></line><line x1="-107.79810456103081" x2="-107.79810456103081" y1="208.80378008844332" y2="265.6487462951164" stroke="#ffffff" stroke-width="1.361973198701325" stroke-linecap="round"></line><line x1="-107.79810456103081" x2="-107.79810456103081" y1="83.80378008844333" y2="140.64874629511638" stroke="#ffffff" stroke-width="1.361973198701325" stroke-linecap="round"></line><line x1="-107.79810456103081" x2="-107.79810456103081" y1="-41.19621991155667" y2="15.648746295116375" stroke="#ffffff" stroke-width="1.361973198701325" stroke-linecap="round"></line><line x1="-107.79810456103081" x2="-107.79810456103081" y1="-166.19621991155668" y2="-109.35125370488362" stroke="#ffffff" stroke-width="1.361973198701325" stroke-linecap="round"></line><line x1="-107.79810456103081" x2="-107.79810456103081" y1="-291.1962199115567" y2="-234.35125370488362" stroke="#ffffff" stroke-width="1.361973198701325" stroke-linecap="round"></line><line x1="92.5562410356014" x2="92.5562410356014" y1="243.7795127935258" y2="277.6805878620497" stroke="#ffffff" stroke-width="0.5432646983065115" stroke-linecap="round"></line><line x1="92.5562410356014" x2="92.5562410356014" y1="118.77951279352581" y2="152.68058786204975" stroke="#ffffff" stroke-width="0.5432646983065115" stroke-linecap="round"></line><line x1="92.5562410356014" x2="92.5562410356014" y1="-6.220487206474195" y2="27.680587862049748" stroke="#ffffff" stroke-width="0.5432646983065115" stroke-linecap="round"></line><line x1="92.5562410356014" x2="92.5562410356014" y1="-131.2204872064742" y2="-97.31941213795025" stroke="#ffffff" stroke-width="0.5432646983065115" stroke-linecap="round"></line><line x1="92.5562410356014" x2="92.5562410356014" y1="-256.2204872064742" y2="-222.31941213795025" stroke="#ffffff" stroke-width="0.5432646983065115" stroke-linecap="round"></line><line x1="-10.712999261543654" x2="-10.712999261543654" y1="251.1685088491297" y2="281.79871559465914" stroke="#ffffff" stroke-width="3.2342480231900983" stroke-linecap="round"></line><line x1="-10.712999261543654" x2="-10.712999261543654" y1="126.1685088491297" y2="156.79871559465914" stroke="#ffffff" stroke-width="3.2342480231900983" stroke-linecap="round"></line><line x1="-10.712999261543654" x2="-10.712999261543654" y1="1.1685088491296958" y2="31.79871559465915" stroke="#ffffff" stroke-width="3.2342480231900983" stroke-linecap="round"></line><line x1="-10.712999261543654" x2="-10.712999261543654" y1="-123.8314911508703" y2="-93.20128440534086" stroke="#ffffff" stroke-width="3.2342480231900983" stroke-linecap="round"></line><line x1="-10.712999261543654" x2="-10.712999261543654" y1="-248.8314911508703" y2="-218.20128440534086" stroke="#ffffff" stroke-width="3.2342480231900983" stroke-linecap="round"></line><line x1="73.84362573997295" x2="73.84362573997295" y1="250.8118945430971" y2="285.10606921832357" stroke="#ffffff" stroke-width="0.4751217313056977" stroke-linecap="round"></line><line x1="73.84362573997295" x2="73.84362573997295" y1="125.8118945430971" y2="160.10606921832354" stroke="#ffffff" stroke-width="0.4751217313056977" stroke-linecap="round"></line><line x1="73.84362573997295" x2="73.84362573997295" y1="0.8118945430971025" y2="35.10606921832355" stroke="#ffffff" stroke-width="0.4751217313056977" stroke-linecap="round"></line><line x1="73.84362573997295" x2="73.84362573997295" y1="-124.1881054569029" y2="-89.89393078167646" stroke="#ffffff" stroke-width="0.4751217313056977" stroke-linecap="round"></line><line x1="73.84362573997295" x2="73.84362573997295" y1="-249.1881054569029" y2="-214.89393078167646" stroke="#ffffff" stroke-width="0.4751217313056977" stroke-linecap="round"></line><line x1="-32.25312968769897" x2="-32.25312968769897" y1="193.1371810123461" y2="230.057328676363" stroke="#ffffff" stroke-width="1.3716495512525706" stroke-linecap="round"></line><line x1="-32.25312968769897" x2="-32.25312968769897" y1="68.13718101234609" y2="105.057328676363" stroke="#ffffff" stroke-width="1.3716495512525706" stroke-linecap="round"></line><line x1="-32.25312968769897" x2="-32.25312968769897" y1="-56.86281898765391" y2="-19.942671323636993" stroke="#ffffff" stroke-width="1.3716495512525706" stroke-linecap="round"></line><line x1="-32.25312968769897" x2="-32.25312968769897" y1="-181.8628189876539" y2="-144.942671323637" stroke="#ffffff" stroke-width="1.3716495512525706" stroke-linecap="round"></line><line x1="-32.25312968769897" x2="-32.25312968769897" y1="-306.8628189876539" y2="-269.942671323637" stroke="#ffffff" stroke-width="1.3716495512525706" stroke-linecap="round"></line><line x1="7.827073367511295" x2="7.827073367511295" y1="291.38792960923183" y2="352.4848824979454" stroke="#ffffff" stroke-width="1.2882955862041512" stroke-linecap="round"></line><line x1="7.827073367511295" x2="7.827073367511295" y1="166.38792960923183" y2="227.48488249794542" stroke="#ffffff" stroke-width="1.2882955862041512" stroke-linecap="round"></line><line x1="7.827073367511295" x2="7.827073367511295" y1="41.38792960923182" y2="102.48488249794543" stroke="#ffffff" stroke-width="1.2882955862041512" stroke-linecap="round"></line><line x1="7.827073367511295" x2="7.827073367511295" y1="-83.61207039076818" y2="-22.515117502054565" stroke="#ffffff" stroke-width="1.2882955862041512" stroke-linecap="round"></line><line x1="7.827073367511295" x2="7.827073367511295" y1="-208.61207039076817" y2="-147.51511750205458" stroke="#ffffff" stroke-width="1.2882955862041512" stroke-linecap="round"></line><line x1="25.78309465979047" x2="25.78309465979047" y1="312.2657123802243" y2="383.6762133953663" stroke="#ffffff" stroke-width="0.10362039498883258" stroke-linecap="round"></line><line x1="25.78309465979047" x2="25.78309465979047" y1="187.26571238022427" y2="258.6762133953663" stroke="#ffffff" stroke-width="0.10362039498883258" stroke-linecap="round"></line><line x1="25.78309465979047" x2="25.78309465979047" y1="62.26571238022427" y2="133.6762133953663" stroke="#ffffff" stroke-width="0.10362039498883258" stroke-linecap="round"></line><line x1="25.78309465979047" x2="25.78309465979047" y1="-62.73428761977573" y2="8.67621339536629" stroke="#ffffff" stroke-width="0.10362039498883258" stroke-linecap="round"></line><line x1="25.78309465979047" x2="25.78309465979047" y1="-187.73428761977573" y2="-116.32378660463371" stroke="#ffffff" stroke-width="0.10362039498883258" stroke-linecap="round"></line><line x1="-22.13235939948607" x2="-22.13235939948607" y1="231.8387297024325" y2="288.4133430830462" stroke="#ffffff" stroke-width="0.5465799230656787" stroke-linecap="round"></line><line x1="-22.13235939948607" x2="-22.13235939948607" y1="106.83872970243249" y2="163.4133430830462" stroke="#ffffff" stroke-width="0.5465799230656787" stroke-linecap="round"></line><line x1="-22.13235939948607" x2="-22.13235939948607" y1="-18.161270297567505" y2="38.41334308304617" stroke="#ffffff" stroke-width="0.5465799230656787" stroke-linecap="round"></line><line x1="-22.13235939948607" x2="-22.13235939948607" y1="-143.1612702975675" y2="-86.58665691695383" stroke="#ffffff" stroke-width="0.5465799230656787" stroke-linecap="round"></line><line x1="-22.13235939948607" x2="-22.13235939948607" y1="-268.1612702975675" y2="-211.5866569169538" stroke="#ffffff" stroke-width="0.5465799230656787" stroke-linecap="round"></line><line x1="114.6419193440078" x2="114.6419193440078" y1="208.1036769117405" y2="266.3966389626095" stroke="#ffffff" stroke-width="3.181673740983374" stroke-linecap="round"></line><line x1="114.6419193440078" x2="114.6419193440078" y1="83.10367691174051" y2="141.39663896260947" stroke="#ffffff" stroke-width="3.181673740983374" stroke-linecap="round"></line><line x1="114.6419193440078" x2="114.6419193440078" y1="-41.89632308825949" y2="16.39663896260948" stroke="#ffffff" stroke-width="3.181673740983374" stroke-linecap="round"></line><line x1="114.6419193440078" x2="114.6419193440078" y1="-166.8963230882595" y2="-108.60336103739053" stroke="#ffffff" stroke-width="3.181673740983374" stroke-linecap="round"></line><line x1="114.6419193440078" x2="114.6419193440078" y1="-291.89632308825946" y2="-233.60336103739053" stroke="#ffffff" stroke-width="3.181673740983374" stroke-linecap="round"></line></g>
    </g>
    <g></g>
  </g>

</g>
</svg>