<svg xmlns="http://www.w3.org/2000/svg" style="margin:auto;background: linear-gradient(180deg, rgba(255,255,255,1) 50%, rgba(0,0,0,1) 100%);display:block;" width="280" height="250" preserveAspectRatio="xMidYMid">
<style type="text/css">
  text {
    text-anchor: middle; font-size: 6px; opacity: 0;
  }
</style>
<g style="transform-origin:140px 125px;transform:scale(1)">
<style type="text/css">
  @keyframes ld-speed-dash {
    0% { transform: translate(0,-125px); }
    100% { transform: translate(0,125px); }
  }
  .ld.ld-speed-dash-1 {
    animation: ld-speed-dash 1.1111111111111112s linear infinite;
  }
  .ld.ld-speed-dash-2 {
    animation: ld-speed-dash 2.2222222222222223s linear infinite;
  }
</style>
  <g transform="translate(140,125)">
    <g style="transform:rotate(180deg)">
      <g class="ld ld-speed-dash-1"><line x1="0.8155335428843191" x2="0.8155335428843191" y1="267.0809288898822" y2="350.9561105653767" stroke="#ffffff" stroke-width="2.3608231760412712" stroke-linecap="round"></line><line x1="0.8155335428843191" x2="0.8155335428843191" y1="142.08092888988222" y2="225.95611056537672" stroke="#ffffff" stroke-width="2.3608231760412712" stroke-linecap="round"></line><line x1="0.8155335428843191" x2="0.8155335428843191" y1="17.08092888988222" y2="100.95611056537673" stroke="#ffffff" stroke-width="2.3608231760412712" stroke-linecap="round"></line><line x1="0.8155335428843191" x2="0.8155335428843191" y1="-107.91907111011778" y2="-24.043889434623267" stroke="#ffffff" stroke-width="2.3608231760412712" stroke-linecap="round"></line><line x1="0.8155335428843191" x2="0.8155335428843191" y1="-232.91907111011778" y2="-149.04388943462328" stroke="#ffffff" stroke-width="2.3608231760412712" stroke-linecap="round"></line><line x1="-1.0015694748728077" x2="-1.0015694748728077" y1="282.9084430715819" y2="313.3127714633782" stroke="#ffffff" stroke-width="1.9263083012627857" stroke-linecap="round"></line><line x1="-1.0015694748728077" x2="-1.0015694748728077" y1="157.90844307158193" y2="188.31277146337825" stroke="#ffffff" stroke-width="1.9263083012627857" stroke-linecap="round"></line><line x1="-1.0015694748728077" x2="-1.0015694748728077" y1="32.90844307158194" y2="63.31277146337825" stroke="#ffffff" stroke-width="1.9263083012627857" stroke-linecap="round"></line><line x1="-1.0015694748728077" x2="-1.0015694748728077" y1="-92.09155692841806" y2="-61.68722853662175" stroke="#ffffff" stroke-width="1.9263083012627857" stroke-linecap="round"></line><line x1="-1.0015694748728077" x2="-1.0015694748728077" y1="-217.09155692841807" y2="-186.68722853662175" stroke="#ffffff" stroke-width="1.9263083012627857" stroke-linecap="round"></line><line x1="10.122559149535544" x2="10.122559149535544" y1="300.83647310173626" y2="360.76036946081507" stroke="#ffffff" stroke-width="2.881886711697134" stroke-linecap="round"></line><line x1="10.122559149535544" x2="10.122559149535544" y1="175.83647310173626" y2="235.76036946081507" stroke="#ffffff" stroke-width="2.881886711697134" stroke-linecap="round"></line><line x1="10.122559149535544" x2="10.122559149535544" y1="50.83647310173625" y2="110.76036946081506" stroke="#ffffff" stroke-width="2.881886711697134" stroke-linecap="round"></line><line x1="10.122559149535544" x2="10.122559149535544" y1="-74.16352689826374" y2="-14.239630539184944" stroke="#ffffff" stroke-width="2.881886711697134" stroke-linecap="round"></line><line x1="10.122559149535544" x2="10.122559149535544" y1="-199.16352689826374" y2="-139.23963053918493" stroke="#ffffff" stroke-width="2.881886711697134" stroke-linecap="round"></line><line x1="0.41376510442511005" x2="0.41376510442511005" y1="218.2150802208795" y2="282.50546407241336" stroke="#ffffff" stroke-width="4.219723326414087" stroke-linecap="round"></line><line x1="0.41376510442511005" x2="0.41376510442511005" y1="93.21508022087951" y2="157.50546407241333" stroke="#ffffff" stroke-width="4.219723326414087" stroke-linecap="round"></line><line x1="0.41376510442511005" x2="0.41376510442511005" y1="-31.784919779120486" y2="32.50546407241334" stroke="#ffffff" stroke-width="4.219723326414087" stroke-linecap="round"></line><line x1="0.41376510442511005" x2="0.41376510442511005" y1="-156.7849197791205" y2="-92.49453592758667" stroke="#ffffff" stroke-width="4.219723326414087" stroke-linecap="round"></line><line x1="0.41376510442511005" x2="0.41376510442511005" y1="-281.7849197791205" y2="-217.49453592758667" stroke="#ffffff" stroke-width="4.219723326414087" stroke-linecap="round"></line><line x1="-38.36568011395738" x2="-38.36568011395738" y1="234.92345548305036" y2="304.3416716127004" stroke="#ffffff" stroke-width="0.011635966613222637" stroke-linecap="round"></line><line x1="-38.36568011395738" x2="-38.36568011395738" y1="109.92345548305035" y2="179.3416716127004" stroke="#ffffff" stroke-width="0.011635966613222637" stroke-linecap="round"></line><line x1="-38.36568011395738" x2="-38.36568011395738" y1="-15.076544516949648" y2="54.34167161270039" stroke="#ffffff" stroke-width="0.011635966613222637" stroke-linecap="round"></line><line x1="-38.36568011395738" x2="-38.36568011395738" y1="-140.07654451694964" y2="-70.6583283872996" stroke="#ffffff" stroke-width="0.011635966613222637" stroke-linecap="round"></line><line x1="-38.36568011395738" x2="-38.36568011395738" y1="-265.07654451694964" y2="-195.6583283872996" stroke="#ffffff" stroke-width="0.011635966613222637" stroke-linecap="round"></line><line x1="121.86606768983347" x2="121.86606768983347" y1="250.41806492293907" y2="321.6023904381994" stroke="#ffffff" stroke-width="0.5256416105271566" stroke-linecap="round"></line><line x1="121.86606768983347" x2="121.86606768983347" y1="125.41806492293905" y2="196.6023904381994" stroke="#ffffff" stroke-width="0.5256416105271566" stroke-linecap="round"></line><line x1="121.86606768983347" x2="121.86606768983347" y1="0.4180649229390543" y2="71.6023904381994" stroke="#ffffff" stroke-width="0.5256416105271566" stroke-linecap="round"></line><line x1="121.86606768983347" x2="121.86606768983347" y1="-124.58193507706095" y2="-53.39760956180061" stroke="#ffffff" stroke-width="0.5256416105271566" stroke-linecap="round"></line><line x1="121.86606768983347" x2="121.86606768983347" y1="-249.58193507706093" y2="-178.3976095618006" stroke="#ffffff" stroke-width="0.5256416105271566" stroke-linecap="round"></line><line x1="-111.87951591709908" x2="-111.87951591709908" y1="192.250668782636" y2="247.44117692523352" stroke="#ffffff" stroke-width="2.5120358972454957" stroke-linecap="round"></line><line x1="-111.87951591709908" x2="-111.87951591709908" y1="67.250668782636" y2="122.44117692523352" stroke="#ffffff" stroke-width="2.5120358972454957" stroke-linecap="round"></line><line x1="-111.87951591709908" x2="-111.87951591709908" y1="-57.749331217364" y2="-2.5588230747664795" stroke="#ffffff" stroke-width="2.5120358972454957" stroke-linecap="round"></line><line x1="-111.87951591709908" x2="-111.87951591709908" y1="-182.749331217364" y2="-127.55882307476648" stroke="#ffffff" stroke-width="2.5120358972454957" stroke-linecap="round"></line><line x1="-111.87951591709908" x2="-111.87951591709908" y1="-307.749331217364" y2="-252.55882307476648" stroke="#ffffff" stroke-width="2.5120358972454957" stroke-linecap="round"></line><line x1="52.26122785378615" x2="52.26122785378615" y1="256.99173050678286" y2="332.94195869943326" stroke="#ffffff" stroke-width="0.8377116549251096" stroke-linecap="round"></line><line x1="52.26122785378615" x2="52.26122785378615" y1="131.99173050678283" y2="207.94195869943326" stroke="#ffffff" stroke-width="0.8377116549251096" stroke-linecap="round"></line><line x1="52.26122785378615" x2="52.26122785378615" y1="6.991730506782839" y2="82.94195869943324" stroke="#ffffff" stroke-width="0.8377116549251096" stroke-linecap="round"></line><line x1="52.26122785378615" x2="52.26122785378615" y1="-118.00826949321716" y2="-42.05804130056676" stroke="#ffffff" stroke-width="0.8377116549251096" stroke-linecap="round"></line><line x1="52.26122785378615" x2="52.26122785378615" y1="-243.00826949321717" y2="-167.05804130056674" stroke="#ffffff" stroke-width="0.8377116549251096" stroke-linecap="round"></line><line x1="-130.5497732764422" x2="-130.5497732764422" y1="294.27929778541613" y2="357.84020554128415" stroke="#ffffff" stroke-width="0.45965702005069553" stroke-linecap="round"></line><line x1="-130.5497732764422" x2="-130.5497732764422" y1="169.27929778541613" y2="232.84020554128412" stroke="#ffffff" stroke-width="0.45965702005069553" stroke-linecap="round"></line><line x1="-130.5497732764422" x2="-130.5497732764422" y1="44.27929778541614" y2="107.84020554128412" stroke="#ffffff" stroke-width="0.45965702005069553" stroke-linecap="round"></line><line x1="-130.5497732764422" x2="-130.5497732764422" y1="-80.72070221458387" y2="-17.15979445871588" stroke="#ffffff" stroke-width="0.45965702005069553" stroke-linecap="round"></line><line x1="-130.5497732764422" x2="-130.5497732764422" y1="-205.72070221458387" y2="-142.15979445871588" stroke="#ffffff" stroke-width="0.45965702005069553" stroke-linecap="round"></line><line x1="88.12633540470826" x2="88.12633540470826" y1="187.84189408153844" y2="229.54366931557038" stroke="#ffffff" stroke-width="4.951936252052855" stroke-linecap="round"></line><line x1="88.12633540470826" x2="88.12633540470826" y1="62.84189408153845" y2="104.54366931557038" stroke="#ffffff" stroke-width="4.951936252052855" stroke-linecap="round"></line><line x1="88.12633540470826" x2="88.12633540470826" y1="-62.15810591846155" y2="-20.456330684429616" stroke="#ffffff" stroke-width="4.951936252052855" stroke-linecap="round"></line><line x1="88.12633540470826" x2="88.12633540470826" y1="-187.15810591846156" y2="-145.45633068442962" stroke="#ffffff" stroke-width="4.951936252052855" stroke-linecap="round"></line><line x1="88.12633540470826" x2="88.12633540470826" y1="-312.15810591846156" y2="-270.45633068442964" stroke="#ffffff" stroke-width="4.951936252052855" stroke-linecap="round"></line><line x1="24.76782956626991" x2="24.76782956626991" y1="251.05516142178712" y2="284.8764503461841" stroke="#ffffff" stroke-width="0.5678145205360219" stroke-linecap="round"></line><line x1="24.76782956626991" x2="24.76782956626991" y1="126.05516142178713" y2="159.87645034618407" stroke="#ffffff" stroke-width="0.5678145205360219" stroke-linecap="round"></line><line x1="24.76782956626991" x2="24.76782956626991" y1="1.055161421787132" y2="34.87645034618407" stroke="#ffffff" stroke-width="0.5678145205360219" stroke-linecap="round"></line><line x1="24.76782956626991" x2="24.76782956626991" y1="-123.94483857821287" y2="-90.12354965381593" stroke="#ffffff" stroke-width="0.5678145205360219" stroke-linecap="round"></line><line x1="24.76782956626991" x2="24.76782956626991" y1="-248.94483857821288" y2="-215.12354965381593" stroke="#ffffff" stroke-width="0.5678145205360219" stroke-linecap="round"></line><line x1="-0.9523545445119197" x2="-0.9523545445119197" y1="288.46712814651846" y2="355.83096173350316" stroke="#ffffff" stroke-width="1.0602163638095963" stroke-linecap="round"></line><line x1="-0.9523545445119197" x2="-0.9523545445119197" y1="163.46712814651846" y2="230.83096173350313" stroke="#ffffff" stroke-width="1.0602163638095963" stroke-linecap="round"></line><line x1="-0.9523545445119197" x2="-0.9523545445119197" y1="38.467128146518455" y2="105.83096173350313" stroke="#ffffff" stroke-width="1.0602163638095963" stroke-linecap="round"></line><line x1="-0.9523545445119197" x2="-0.9523545445119197" y1="-86.53287185348154" y2="-19.16903826649687" stroke="#ffffff" stroke-width="1.0602163638095963" stroke-linecap="round"></line><line x1="-0.9523545445119197" x2="-0.9523545445119197" y1="-211.53287185348154" y2="-144.16903826649687" stroke="#ffffff" stroke-width="1.0602163638095963" stroke-linecap="round"></line><line x1="114.71878395922214" x2="114.71878395922214" y1="229.7456432092217" y2="294.78758736128714" stroke="#ffffff" stroke-width="1.0524156527013062" stroke-linecap="round"></line><line x1="114.71878395922214" x2="114.71878395922214" y1="104.7456432092217" y2="169.78758736128714" stroke="#ffffff" stroke-width="1.0524156527013062" stroke-linecap="round"></line><line x1="114.71878395922214" x2="114.71878395922214" y1="-20.254356790778306" y2="44.78758736128712" stroke="#ffffff" stroke-width="1.0524156527013062" stroke-linecap="round"></line><line x1="114.71878395922214" x2="114.71878395922214" y1="-145.2543567907783" y2="-80.21241263871288" stroke="#ffffff" stroke-width="1.0524156527013062" stroke-linecap="round"></line><line x1="114.71878395922214" x2="114.71878395922214" y1="-270.25435679077833" y2="-205.21241263871286" stroke="#ffffff" stroke-width="1.0524156527013062" stroke-linecap="round"></line><line x1="-114.5043138804351" x2="-114.5043138804351" y1="311.96312815292515" y2="379.0366268459509" stroke="#ffffff" stroke-width="3.007218322912718" stroke-linecap="round"></line><line x1="-114.5043138804351" x2="-114.5043138804351" y1="186.96312815292518" y2="254.03662684595085" stroke="#ffffff" stroke-width="3.007218322912718" stroke-linecap="round"></line><line x1="-114.5043138804351" x2="-114.5043138804351" y1="61.96312815292518" y2="129.03662684595085" stroke="#ffffff" stroke-width="3.007218322912718" stroke-linecap="round"></line><line x1="-114.5043138804351" x2="-114.5043138804351" y1="-63.03687184707482" y2="4.036626845950849" stroke="#ffffff" stroke-width="3.007218322912718" stroke-linecap="round"></line><line x1="-114.5043138804351" x2="-114.5043138804351" y1="-188.03687184707482" y2="-120.96337315404915" stroke="#ffffff" stroke-width="3.007218322912718" stroke-linecap="round"></line><line x1="-58.38114207025707" x2="-58.38114207025707" y1="214.49075231474413" y2="269.2546806772793" stroke="#ffffff" stroke-width="1.8724676516291372" stroke-linecap="round"></line><line x1="-58.38114207025707" x2="-58.38114207025707" y1="89.49075231474413" y2="144.2546806772793" stroke="#ffffff" stroke-width="1.8724676516291372" stroke-linecap="round"></line><line x1="-58.38114207025707" x2="-58.38114207025707" y1="-35.50924768525587" y2="19.254680677279307" stroke="#ffffff" stroke-width="1.8724676516291372" stroke-linecap="round"></line><line x1="-58.38114207025707" x2="-58.38114207025707" y1="-160.50924768525587" y2="-105.74531932272069" stroke="#ffffff" stroke-width="1.8724676516291372" stroke-linecap="round"></line><line x1="-58.38114207025707" x2="-58.38114207025707" y1="-285.5092476852559" y2="-230.7453193227207" stroke="#ffffff" stroke-width="1.8724676516291372" stroke-linecap="round"></line><line x1="-77.5776656980411" x2="-77.5776656980411" y1="272.25282373987363" y2="344.23503905670134" stroke="#ffffff" stroke-width="0.16092356613816472" stroke-linecap="round"></line><line x1="-77.5776656980411" x2="-77.5776656980411" y1="147.25282373987363" y2="219.2350390567013" stroke="#ffffff" stroke-width="0.16092356613816472" stroke-linecap="round"></line><line x1="-77.5776656980411" x2="-77.5776656980411" y1="22.25282373987364" y2="94.23503905670131" stroke="#ffffff" stroke-width="0.16092356613816472" stroke-linecap="round"></line><line x1="-77.5776656980411" x2="-77.5776656980411" y1="-102.74717626012637" y2="-30.76496094329869" stroke="#ffffff" stroke-width="0.16092356613816472" stroke-linecap="round"></line><line x1="-77.5776656980411" x2="-77.5776656980411" y1="-227.74717626012637" y2="-155.7649609432987" stroke="#ffffff" stroke-width="0.16092356613816472" stroke-linecap="round"></line><line x1="1.7589710054398022" x2="1.7589710054398022" y1="241.8161238352846" y2="297.5872682984559" stroke="#ffffff" stroke-width="0.5060719849553119" stroke-linecap="round"></line><line x1="1.7589710054398022" x2="1.7589710054398022" y1="116.81612383528461" y2="172.5872682984559" stroke="#ffffff" stroke-width="0.5060719849553119" stroke-linecap="round"></line><line x1="1.7589710054398022" x2="1.7589710054398022" y1="-8.183876164715386" y2="47.587268298455896" stroke="#ffffff" stroke-width="0.5060719849553119" stroke-linecap="round"></line><line x1="1.7589710054398022" x2="1.7589710054398022" y1="-133.1838761647154" y2="-77.4127317015441" stroke="#ffffff" stroke-width="0.5060719849553119" stroke-linecap="round"></line><line x1="1.7589710054398022" x2="1.7589710054398022" y1="-258.1838761647154" y2="-202.4127317015441" stroke="#ffffff" stroke-width="0.5060719849553119" stroke-linecap="round"></line><line x1="-125.0702375071274" x2="-125.0702375071274" y1="228.80711854168402" y2="264.40028249926684" stroke="#ffffff" stroke-width="1.0900515714662407" stroke-linecap="round"></line><line x1="-125.0702375071274" x2="-125.0702375071274" y1="103.80711854168403" y2="139.4002824992668" stroke="#ffffff" stroke-width="1.0900515714662407" stroke-linecap="round"></line><line x1="-125.0702375071274" x2="-125.0702375071274" y1="-21.192881458315966" y2="14.400282499266813" stroke="#ffffff" stroke-width="1.0900515714662407" stroke-linecap="round"></line><line x1="-125.0702375071274" x2="-125.0702375071274" y1="-146.19288145831598" y2="-110.59971750073319" stroke="#ffffff" stroke-width="1.0900515714662407" stroke-linecap="round"></line><line x1="-125.0702375071274" x2="-125.0702375071274" y1="-271.192881458316" y2="-235.5997175007332" stroke="#ffffff" stroke-width="1.0900515714662407" stroke-linecap="round"></line><line x1="-87.83270210006538" x2="-87.83270210006538" y1="284.04670952743595" y2="344.9780015566436" stroke="#ffffff" stroke-width="1.8295585391995561" stroke-linecap="round"></line><line x1="-87.83270210006538" x2="-87.83270210006538" y1="159.04670952743595" y2="219.97800155664362" stroke="#ffffff" stroke-width="1.8295585391995561" stroke-linecap="round"></line><line x1="-87.83270210006538" x2="-87.83270210006538" y1="34.04670952743594" y2="94.9780015566436" stroke="#ffffff" stroke-width="1.8295585391995561" stroke-linecap="round"></line><line x1="-87.83270210006538" x2="-87.83270210006538" y1="-90.95329047256406" y2="-30.021998443356395" stroke="#ffffff" stroke-width="1.8295585391995561" stroke-linecap="round"></line><line x1="-87.83270210006538" x2="-87.83270210006538" y1="-215.95329047256405" y2="-155.02199844335638" stroke="#ffffff" stroke-width="1.8295585391995561" stroke-linecap="round"></line><line x1="-96.86054788863984" x2="-96.86054788863984" y1="295.97268510965284" y2="359.59358261227663" stroke="#ffffff" stroke-width="4.4765546090155395" stroke-linecap="round"></line><line x1="-96.86054788863984" x2="-96.86054788863984" y1="170.97268510965284" y2="234.59358261227663" stroke="#ffffff" stroke-width="4.4765546090155395" stroke-linecap="round"></line><line x1="-96.86054788863984" x2="-96.86054788863984" y1="45.97268510965286" y2="109.59358261227665" stroke="#ffffff" stroke-width="4.4765546090155395" stroke-linecap="round"></line><line x1="-96.86054788863984" x2="-96.86054788863984" y1="-79.02731489034714" y2="-15.406417387723351" stroke="#ffffff" stroke-width="4.4765546090155395" stroke-linecap="round"></line><line x1="-96.86054788863984" x2="-96.86054788863984" y1="-204.02731489034716" y2="-140.40641738772337" stroke="#ffffff" stroke-width="4.4765546090155395" stroke-linecap="round"></line><line x1="86.23381065442618" x2="86.23381065442618" y1="253.19588584760479" y2="316.7054036980184" stroke="#ffffff" stroke-width="0.5755551487916677" stroke-linecap="round"></line><line x1="86.23381065442618" x2="86.23381065442618" y1="128.19588584760479" y2="191.70540369801842" stroke="#ffffff" stroke-width="0.5755551487916677" stroke-linecap="round"></line><line x1="86.23381065442618" x2="86.23381065442618" y1="3.1958858476047736" y2="66.70540369801842" stroke="#ffffff" stroke-width="0.5755551487916677" stroke-linecap="round"></line><line x1="86.23381065442618" x2="86.23381065442618" y1="-121.80411415239523" y2="-58.294596301981585" stroke="#ffffff" stroke-width="0.5755551487916677" stroke-linecap="round"></line><line x1="86.23381065442618" x2="86.23381065442618" y1="-246.80411415239521" y2="-183.29459630198158" stroke="#ffffff" stroke-width="0.5755551487916677" stroke-linecap="round"></line><line x1="-42.20255596896189" x2="-42.20255596896189" y1="192.937818851273" y2="221.59286579408467" stroke="#ffffff" stroke-width="4.419957226780306" stroke-linecap="round"></line><line x1="-42.20255596896189" x2="-42.20255596896189" y1="67.93781885127298" y2="96.59286579408467" stroke="#ffffff" stroke-width="4.419957226780306" stroke-linecap="round"></line><line x1="-42.20255596896189" x2="-42.20255596896189" y1="-57.06218114872702" y2="-28.407134205915334" stroke="#ffffff" stroke-width="4.419957226780306" stroke-linecap="round"></line><line x1="-42.20255596896189" x2="-42.20255596896189" y1="-182.062181148727" y2="-153.40713420591533" stroke="#ffffff" stroke-width="4.419957226780306" stroke-linecap="round"></line><line x1="-42.20255596896189" x2="-42.20255596896189" y1="-307.062181148727" y2="-278.4071342059153" stroke="#ffffff" stroke-width="4.419957226780306" stroke-linecap="round"></line><line x1="-0.8764417278127112" x2="-0.8764417278127112" y1="249.7850174932878" y2="300.32065283356826" stroke="#ffffff" stroke-width="3.810150522610817" stroke-linecap="round"></line><line x1="-0.8764417278127112" x2="-0.8764417278127112" y1="124.7850174932878" y2="175.32065283356823" stroke="#ffffff" stroke-width="3.810150522610817" stroke-linecap="round"></line><line x1="-0.8764417278127112" x2="-0.8764417278127112" y1="-0.21498250671220243" y2="50.32065283356824" stroke="#ffffff" stroke-width="3.810150522610817" stroke-linecap="round"></line><line x1="-0.8764417278127112" x2="-0.8764417278127112" y1="-125.2149825067122" y2="-74.67934716643177" stroke="#ffffff" stroke-width="3.810150522610817" stroke-linecap="round"></line><line x1="-0.8764417278127112" x2="-0.8764417278127112" y1="-250.2149825067122" y2="-199.67934716643177" stroke="#ffffff" stroke-width="3.810150522610817" stroke-linecap="round"></line><line x1="85.72747922898667" x2="85.72747922898667" y1="190.57096135951582" y2="229.17204056204235" stroke="#ffffff" stroke-width="4.415414870787302" stroke-linecap="round"></line><line x1="85.72747922898667" x2="85.72747922898667" y1="65.57096135951582" y2="104.17204056204235" stroke="#ffffff" stroke-width="4.415414870787302" stroke-linecap="round"></line><line x1="85.72747922898667" x2="85.72747922898667" y1="-59.42903864048418" y2="-20.827959437957638" stroke="#ffffff" stroke-width="4.415414870787302" stroke-linecap="round"></line><line x1="85.72747922898667" x2="85.72747922898667" y1="-184.42903864048418" y2="-145.82795943795765" stroke="#ffffff" stroke-width="4.415414870787302" stroke-linecap="round"></line><line x1="85.72747922898667" x2="85.72747922898667" y1="-309.4290386404842" y2="-270.82795943795765" stroke="#ffffff" stroke-width="4.415414870787302" stroke-linecap="round"></line><line x1="-131.9307962771282" x2="-131.9307962771282" y1="248.98675559149868" y2="318.41301919316453" stroke="#ffffff" stroke-width="3.431581922729973" stroke-linecap="round"></line><line x1="-131.9307962771282" x2="-131.9307962771282" y1="123.98675559149869" y2="193.41301919316453" stroke="#ffffff" stroke-width="3.431581922729973" stroke-linecap="round"></line><line x1="-131.9307962771282" x2="-131.9307962771282" y1="-1.0132444085013126" y2="68.41301919316453" stroke="#ffffff" stroke-width="3.431581922729973" stroke-linecap="round"></line><line x1="-131.9307962771282" x2="-131.9307962771282" y1="-126.01324440850131" y2="-56.58698080683547" stroke="#ffffff" stroke-width="3.431581922729973" stroke-linecap="round"></line><line x1="-131.9307962771282" x2="-131.9307962771282" y1="-251.01324440850132" y2="-181.58698080683547" stroke="#ffffff" stroke-width="3.431581922729973" stroke-linecap="round"></line><line x1="-13.786160655865025" x2="-13.786160655865025" y1="251.16490076110026" y2="332.20028367680845" stroke="#ffffff" stroke-width="4.329416331118745" stroke-linecap="round"></line><line x1="-13.786160655865025" x2="-13.786160655865025" y1="126.16490076110026" y2="207.20028367680843" stroke="#ffffff" stroke-width="4.329416331118745" stroke-linecap="round"></line><line x1="-13.786160655865025" x2="-13.786160655865025" y1="1.1649007611002626" y2="82.20028367680843" stroke="#ffffff" stroke-width="4.329416331118745" stroke-linecap="round"></line><line x1="-13.786160655865025" x2="-13.786160655865025" y1="-123.83509923889974" y2="-42.799716323191575" stroke="#ffffff" stroke-width="4.329416331118745" stroke-linecap="round"></line><line x1="-13.786160655865025" x2="-13.786160655865025" y1="-248.83509923889974" y2="-167.79971632319157" stroke="#ffffff" stroke-width="4.329416331118745" stroke-linecap="round"></line><line x1="-24.690110433590746" x2="-24.690110433590746" y1="299.13755194449317" y2="368.3374548582917" stroke="#ffffff" stroke-width="2.6617701821656645" stroke-linecap="round"></line><line x1="-24.690110433590746" x2="-24.690110433590746" y1="174.13755194449317" y2="243.33745485829172" stroke="#ffffff" stroke-width="2.6617701821656645" stroke-linecap="round"></line><line x1="-24.690110433590746" x2="-24.690110433590746" y1="49.13755194449318" y2="118.33745485829174" stroke="#ffffff" stroke-width="2.6617701821656645" stroke-linecap="round"></line><line x1="-24.690110433590746" x2="-24.690110433590746" y1="-75.86244805550682" y2="-6.662545141708264" stroke="#ffffff" stroke-width="2.6617701821656645" stroke-linecap="round"></line><line x1="-24.690110433590746" x2="-24.690110433590746" y1="-200.86244805550683" y2="-131.66254514170828" stroke="#ffffff" stroke-width="2.6617701821656645" stroke-linecap="round"></line><line x1="47.073719751116386" x2="47.073719751116386" y1="204.50788386738586" y2="281.3986109442766" stroke="#ffffff" stroke-width="0.7203294974448615" stroke-linecap="round"></line><line x1="47.073719751116386" x2="47.073719751116386" y1="79.50788386738586" y2="156.39861094427658" stroke="#ffffff" stroke-width="0.7203294974448615" stroke-linecap="round"></line><line x1="47.073719751116386" x2="47.073719751116386" y1="-45.49211613261414" y2="31.39861094427657" stroke="#ffffff" stroke-width="0.7203294974448615" stroke-linecap="round"></line><line x1="47.073719751116386" x2="47.073719751116386" y1="-170.49211613261414" y2="-93.60138905572343" stroke="#ffffff" stroke-width="0.7203294974448615" stroke-linecap="round"></line><line x1="47.073719751116386" x2="47.073719751116386" y1="-295.4921161326141" y2="-218.60138905572342" stroke="#ffffff" stroke-width="0.7203294974448615" stroke-linecap="round"></line><line x1="-54.17945557842337" x2="-54.17945557842337" y1="275.9651575918407" y2="321.1704598447288" stroke="#ffffff" stroke-width="1.0476697447316774" stroke-linecap="round"></line><line x1="-54.17945557842337" x2="-54.17945557842337" y1="150.9651575918407" y2="196.17045984472878" stroke="#ffffff" stroke-width="1.0476697447316774" stroke-linecap="round"></line><line x1="-54.17945557842337" x2="-54.17945557842337" y1="25.965157591840704" y2="71.1704598447288" stroke="#ffffff" stroke-width="1.0476697447316774" stroke-linecap="round"></line><line x1="-54.17945557842337" x2="-54.17945557842337" y1="-99.03484240815929" y2="-53.829540155271204" stroke="#ffffff" stroke-width="1.0476697447316774" stroke-linecap="round"></line><line x1="-54.17945557842337" x2="-54.17945557842337" y1="-224.0348424081593" y2="-178.82954015527122" stroke="#ffffff" stroke-width="1.0476697447316774" stroke-linecap="round"></line><line x1="46.382070962449255" x2="46.382070962449255" y1="207.36629256804684" y2="265.64270582339543" stroke="#ffffff" stroke-width="1.9012315651623801" stroke-linecap="round"></line><line x1="46.382070962449255" x2="46.382070962449255" y1="82.36629256804684" y2="140.64270582339543" stroke="#ffffff" stroke-width="1.9012315651623801" stroke-linecap="round"></line><line x1="46.382070962449255" x2="46.382070962449255" y1="-42.63370743195316" y2="15.642705823395445" stroke="#ffffff" stroke-width="1.9012315651623801" stroke-linecap="round"></line><line x1="46.382070962449255" x2="46.382070962449255" y1="-167.63370743195316" y2="-109.35729417660455" stroke="#ffffff" stroke-width="1.9012315651623801" stroke-linecap="round"></line><line x1="46.382070962449255" x2="46.382070962449255" y1="-292.63370743195316" y2="-234.35729417660457" stroke="#ffffff" stroke-width="1.9012315651623801" stroke-linecap="round"></line><line x1="-84.43621761815822" x2="-84.43621761815822" y1="220.70214948343292" y2="284.9005071579458" stroke="#ffffff" stroke-width="2.3282479622131635" stroke-linecap="round"></line><line x1="-84.43621761815822" x2="-84.43621761815822" y1="95.70214948343292" y2="159.9005071579458" stroke="#ffffff" stroke-width="2.3282479622131635" stroke-linecap="round"></line><line x1="-84.43621761815822" x2="-84.43621761815822" y1="-29.29785051656708" y2="34.900507157945796" stroke="#ffffff" stroke-width="2.3282479622131635" stroke-linecap="round"></line><line x1="-84.43621761815822" x2="-84.43621761815822" y1="-154.29785051656708" y2="-90.0994928420542" stroke="#ffffff" stroke-width="2.3282479622131635" stroke-linecap="round"></line><line x1="-84.43621761815822" x2="-84.43621761815822" y1="-279.2978505165671" y2="-215.0994928420542" stroke="#ffffff" stroke-width="2.3282479622131635" stroke-linecap="round"></line><line x1="33.55371825586752" x2="33.55371825586752" y1="294.1341791072191" y2="327.14288681782125" stroke="#ffffff" stroke-width="4.572532373690819" stroke-linecap="round"></line><line x1="33.55371825586752" x2="33.55371825586752" y1="169.13417910721913" y2="202.14288681782122" stroke="#ffffff" stroke-width="4.572532373690819" stroke-linecap="round"></line><line x1="33.55371825586752" x2="33.55371825586752" y1="44.13417910721912" y2="77.14288681782122" stroke="#ffffff" stroke-width="4.572532373690819" stroke-linecap="round"></line><line x1="33.55371825586752" x2="33.55371825586752" y1="-80.86582089278087" y2="-47.85711318217878" stroke="#ffffff" stroke-width="4.572532373690819" stroke-linecap="round"></line><line x1="33.55371825586752" x2="33.55371825586752" y1="-205.86582089278087" y2="-172.85711318217878" stroke="#ffffff" stroke-width="4.572532373690819" stroke-linecap="round"></line><line x1="-105.7075598609233" x2="-105.7075598609233" y1="231.53545233779158" y2="301.6004308907977" stroke="#ffffff" stroke-width="4.417944713485316" stroke-linecap="round"></line><line x1="-105.7075598609233" x2="-105.7075598609233" y1="106.53545233779158" y2="176.60043089079772" stroke="#ffffff" stroke-width="4.417944713485316" stroke-linecap="round"></line><line x1="-105.7075598609233" x2="-105.7075598609233" y1="-18.464547662208425" y2="51.60043089079771" stroke="#ffffff" stroke-width="4.417944713485316" stroke-linecap="round"></line><line x1="-105.7075598609233" x2="-105.7075598609233" y1="-143.46454766220842" y2="-73.39956910920229" stroke="#ffffff" stroke-width="4.417944713485316" stroke-linecap="round"></line><line x1="-105.7075598609233" x2="-105.7075598609233" y1="-268.4645476622084" y2="-198.39956910920228" stroke="#ffffff" stroke-width="4.417944713485316" stroke-linecap="round"></line><line x1="66.58387969459244" x2="66.58387969459244" y1="258.00298789070655" y2="301.6326151383766" stroke="#ffffff" stroke-width="1.962806332889212" stroke-linecap="round"></line><line x1="66.58387969459244" x2="66.58387969459244" y1="133.00298789070652" y2="176.63261513837662" stroke="#ffffff" stroke-width="1.962806332889212" stroke-linecap="round"></line><line x1="66.58387969459244" x2="66.58387969459244" y1="8.002987890706525" y2="51.632615138376615" stroke="#ffffff" stroke-width="1.962806332889212" stroke-linecap="round"></line><line x1="66.58387969459244" x2="66.58387969459244" y1="-116.99701210929348" y2="-73.36738486162338" stroke="#ffffff" stroke-width="1.962806332889212" stroke-linecap="round"></line><line x1="66.58387969459244" x2="66.58387969459244" y1="-241.99701210929348" y2="-198.36738486162338" stroke="#ffffff" stroke-width="1.962806332889212" stroke-linecap="round"></line><line x1="-62.83482140300151" x2="-62.83482140300151" y1="230.86447270580265" y2="304.7272202216221" stroke="#ffffff" stroke-width="3.3353496445862616" stroke-linecap="round"></line><line x1="-62.83482140300151" x2="-62.83482140300151" y1="105.86447270580265" y2="179.7272202216221" stroke="#ffffff" stroke-width="3.3353496445862616" stroke-linecap="round"></line><line x1="-62.83482140300151" x2="-62.83482140300151" y1="-19.135527294197345" y2="54.7272202216221" stroke="#ffffff" stroke-width="3.3353496445862616" stroke-linecap="round"></line><line x1="-62.83482140300151" x2="-62.83482140300151" y1="-144.13552729419735" y2="-70.2727797783779" stroke="#ffffff" stroke-width="3.3353496445862616" stroke-linecap="round"></line><line x1="-62.83482140300151" x2="-62.83482140300151" y1="-269.13552729419735" y2="-195.2727797783779" stroke="#ffffff" stroke-width="3.3353496445862616" stroke-linecap="round"></line><line x1="-38.684129345935915" x2="-38.684129345935915" y1="301.91867089074964" y2="370.8957076337146" stroke="#ffffff" stroke-width="2.9192903590522423" stroke-linecap="round"></line><line x1="-38.684129345935915" x2="-38.684129345935915" y1="176.91867089074964" y2="245.8957076337146" stroke="#ffffff" stroke-width="2.9192903590522423" stroke-linecap="round"></line><line x1="-38.684129345935915" x2="-38.684129345935915" y1="51.91867089074964" y2="120.89570763371461" stroke="#ffffff" stroke-width="2.9192903590522423" stroke-linecap="round"></line><line x1="-38.684129345935915" x2="-38.684129345935915" y1="-73.08132910925036" y2="-4.104292366285392" stroke="#ffffff" stroke-width="2.9192903590522423" stroke-linecap="round"></line><line x1="-38.684129345935915" x2="-38.684129345935915" y1="-198.08132910925036" y2="-129.1042923662854" stroke="#ffffff" stroke-width="2.9192903590522423" stroke-linecap="round"></line><line x1="73.10972863226044" x2="73.10972863226044" y1="250.10900629770438" y2="280.12627947694364" stroke="#ffffff" stroke-width="3.285005983002139" stroke-linecap="round"></line><line x1="73.10972863226044" x2="73.10972863226044" y1="125.10900629770438" y2="155.12627947694364" stroke="#ffffff" stroke-width="3.285005983002139" stroke-linecap="round"></line><line x1="73.10972863226044" x2="73.10972863226044" y1="0.10900629770438375" y2="30.126279476943623" stroke="#ffffff" stroke-width="3.285005983002139" stroke-linecap="round"></line><line x1="73.10972863226044" x2="73.10972863226044" y1="-124.89099370229562" y2="-94.87372052305638" stroke="#ffffff" stroke-width="3.285005983002139" stroke-linecap="round"></line><line x1="73.10972863226044" x2="73.10972863226044" y1="-249.89099370229562" y2="-219.87372052305636" stroke="#ffffff" stroke-width="3.285005983002139" stroke-linecap="round"></line><line x1="-44.87484615590919" x2="-44.87484615590919" y1="309.44786333409286" y2="384.7718385972881" stroke="#ffffff" stroke-width="3.939433287401042" stroke-linecap="round"></line><line x1="-44.87484615590919" x2="-44.87484615590919" y1="184.44786333409283" y2="259.7718385972881" stroke="#ffffff" stroke-width="3.939433287401042" stroke-linecap="round"></line><line x1="-44.87484615590919" x2="-44.87484615590919" y1="59.44786333409283" y2="134.77183859728808" stroke="#ffffff" stroke-width="3.939433287401042" stroke-linecap="round"></line><line x1="-44.87484615590919" x2="-44.87484615590919" y1="-65.55213666590717" y2="9.771838597288081" stroke="#ffffff" stroke-width="3.939433287401042" stroke-linecap="round"></line><line x1="-44.87484615590919" x2="-44.87484615590919" y1="-190.55213666590717" y2="-115.22816140271192" stroke="#ffffff" stroke-width="3.939433287401042" stroke-linecap="round"></line><line x1="46.25147905945951" x2="46.25147905945951" y1="250.27428752350448" y2="318.77389869811464" stroke="#ffffff" stroke-width="2.443541524682191" stroke-linecap="round"></line><line x1="46.25147905945951" x2="46.25147905945951" y1="125.27428752350447" y2="193.7738986981146" stroke="#ffffff" stroke-width="2.443541524682191" stroke-linecap="round"></line><line x1="46.25147905945951" x2="46.25147905945951" y1="0.27428752350447394" y2="68.7738986981146" stroke="#ffffff" stroke-width="2.443541524682191" stroke-linecap="round"></line><line x1="46.25147905945951" x2="46.25147905945951" y1="-124.72571247649553" y2="-56.22610130188539" stroke="#ffffff" stroke-width="2.443541524682191" stroke-linecap="round"></line><line x1="46.25147905945951" x2="46.25147905945951" y1="-249.72571247649552" y2="-181.2261013018854" stroke="#ffffff" stroke-width="2.443541524682191" stroke-linecap="round"></line><line x1="-114.91781985912041" x2="-114.91781985912041" y1="229.54726971830587" y2="283.12614990402926" stroke="#ffffff" stroke-width="2.7354777060090374" stroke-linecap="round"></line><line x1="-114.91781985912041" x2="-114.91781985912041" y1="104.54726971830588" y2="158.12614990402923" stroke="#ffffff" stroke-width="2.7354777060090374" stroke-linecap="round"></line><line x1="-114.91781985912041" x2="-114.91781985912041" y1="-20.452730281694116" y2="33.12614990402923" stroke="#ffffff" stroke-width="2.7354777060090374" stroke-linecap="round"></line><line x1="-114.91781985912041" x2="-114.91781985912041" y1="-145.45273028169413" y2="-91.87385009597077" stroke="#ffffff" stroke-width="2.7354777060090374" stroke-linecap="round"></line><line x1="-114.91781985912041" x2="-114.91781985912041" y1="-270.45273028169413" y2="-216.87385009597077" stroke="#ffffff" stroke-width="2.7354777060090374" stroke-linecap="round"></line></g>
      <g class="ld ld-speed-dash-2"><line x1="-97.61373450745" x2="-97.61373450745" y1="281.8177693864606" y2="343.1773913489278" stroke="#ffffff" stroke-width="1.8979053641805133" stroke-linecap="round"></line><line x1="-97.61373450745" x2="-97.61373450745" y1="156.81776938646064" y2="218.1773913489278" stroke="#ffffff" stroke-width="1.8979053641805133" stroke-linecap="round"></line><line x1="-97.61373450745" x2="-97.61373450745" y1="31.817769386460636" y2="93.17739134892783" stroke="#ffffff" stroke-width="1.8979053641805133" stroke-linecap="round"></line><line x1="-97.61373450745" x2="-97.61373450745" y1="-93.18223061353936" y2="-31.822608651072173" stroke="#ffffff" stroke-width="1.8979053641805133" stroke-linecap="round"></line><line x1="-97.61373450745" x2="-97.61373450745" y1="-218.18223061353936" y2="-156.8226086510722" stroke="#ffffff" stroke-width="1.8979053641805133" stroke-linecap="round"></line><line x1="14.333662975890986" x2="14.333662975890986" y1="208.50109197960836" y2="237.61952971117" stroke="#ffffff" stroke-width="2.2192704221083215" stroke-linecap="round"></line><line x1="14.333662975890986" x2="14.333662975890986" y1="83.50109197960836" y2="112.61952971117002" stroke="#ffffff" stroke-width="2.2192704221083215" stroke-linecap="round"></line><line x1="14.333662975890986" x2="14.333662975890986" y1="-41.49890802039163" y2="-12.380470288829983" stroke="#ffffff" stroke-width="2.2192704221083215" stroke-linecap="round"></line><line x1="14.333662975890986" x2="14.333662975890986" y1="-166.49890802039164" y2="-137.38047028883" stroke="#ffffff" stroke-width="2.2192704221083215" stroke-linecap="round"></line><line x1="14.333662975890986" x2="14.333662975890986" y1="-291.49890802039164" y2="-262.38047028883" stroke="#ffffff" stroke-width="2.2192704221083215" stroke-linecap="round"></line><line x1="28.944055106616204" x2="28.944055106616204" y1="267.824461231575" y2="305.97360259410414" stroke="#ffffff" stroke-width="3.145778809532737" stroke-linecap="round"></line><line x1="28.944055106616204" x2="28.944055106616204" y1="142.824461231575" y2="180.9736025941041" stroke="#ffffff" stroke-width="3.145778809532737" stroke-linecap="round"></line><line x1="28.944055106616204" x2="28.944055106616204" y1="17.824461231574993" y2="55.973602594104115" stroke="#ffffff" stroke-width="3.145778809532737" stroke-linecap="round"></line><line x1="28.944055106616204" x2="28.944055106616204" y1="-107.17553876842501" y2="-69.02639740589589" stroke="#ffffff" stroke-width="3.145778809532737" stroke-linecap="round"></line><line x1="28.944055106616204" x2="28.944055106616204" y1="-232.175538768425" y2="-194.0263974058959" stroke="#ffffff" stroke-width="3.145778809532737" stroke-linecap="round"></line><line x1="-59.99976819494815" x2="-59.99976819494815" y1="272.2427485812886" y2="356.5102098338523" stroke="#ffffff" stroke-width="2.0914535619117047" stroke-linecap="round"></line><line x1="-59.99976819494815" x2="-59.99976819494815" y1="147.2427485812886" y2="231.51020983385231" stroke="#ffffff" stroke-width="2.0914535619117047" stroke-linecap="round"></line><line x1="-59.99976819494815" x2="-59.99976819494815" y1="22.24274858128858" y2="106.51020983385231" stroke="#ffffff" stroke-width="2.0914535619117047" stroke-linecap="round"></line><line x1="-59.99976819494815" x2="-59.99976819494815" y1="-102.75725141871142" y2="-18.489790166147685" stroke="#ffffff" stroke-width="2.0914535619117047" stroke-linecap="round"></line><line x1="-59.99976819494815" x2="-59.99976819494815" y1="-227.7572514187114" y2="-143.48979016614769" stroke="#ffffff" stroke-width="2.0914535619117047" stroke-linecap="round"></line><line x1="78.47038888058233" x2="78.47038888058233" y1="234.6608081507924" y2="302.09238358026755" stroke="#ffffff" stroke-width="4.39834150314657" stroke-linecap="round"></line><line x1="78.47038888058233" x2="78.47038888058233" y1="109.6608081507924" y2="177.09238358026755" stroke="#ffffff" stroke-width="4.39834150314657" stroke-linecap="round"></line><line x1="78.47038888058233" x2="78.47038888058233" y1="-15.339191849207594" y2="52.09238358026755" stroke="#ffffff" stroke-width="4.39834150314657" stroke-linecap="round"></line><line x1="78.47038888058233" x2="78.47038888058233" y1="-140.3391918492076" y2="-72.90761641973245" stroke="#ffffff" stroke-width="4.39834150314657" stroke-linecap="round"></line><line x1="78.47038888058233" x2="78.47038888058233" y1="-265.3391918492076" y2="-197.90761641973245" stroke="#ffffff" stroke-width="4.39834150314657" stroke-linecap="round"></line><line x1="82.04506728343597" x2="82.04506728343597" y1="258.5453348618457" y2="326.1036016104231" stroke="#ffffff" stroke-width="4.400073001399738" stroke-linecap="round"></line><line x1="82.04506728343597" x2="82.04506728343597" y1="133.54533486184567" y2="201.10360161042308" stroke="#ffffff" stroke-width="4.400073001399738" stroke-linecap="round"></line><line x1="82.04506728343597" x2="82.04506728343597" y1="8.545334861845665" y2="76.10360161042308" stroke="#ffffff" stroke-width="4.400073001399738" stroke-linecap="round"></line><line x1="82.04506728343597" x2="82.04506728343597" y1="-116.45466513815434" y2="-48.896398389576916" stroke="#ffffff" stroke-width="4.400073001399738" stroke-linecap="round"></line><line x1="82.04506728343597" x2="82.04506728343597" y1="-241.45466513815433" y2="-173.89639838957692" stroke="#ffffff" stroke-width="4.400073001399738" stroke-linecap="round"></line><line x1="-57.30959362446181" x2="-57.30959362446181" y1="310.0774260970688" y2="362.4038196690643" stroke="#ffffff" stroke-width="2.82229823285846" stroke-linecap="round"></line><line x1="-57.30959362446181" x2="-57.30959362446181" y1="185.07742609706875" y2="237.40381966906432" stroke="#ffffff" stroke-width="2.82229823285846" stroke-linecap="round"></line><line x1="-57.30959362446181" x2="-57.30959362446181" y1="60.07742609706876" y2="112.40381966906432" stroke="#ffffff" stroke-width="2.82229823285846" stroke-linecap="round"></line><line x1="-57.30959362446181" x2="-57.30959362446181" y1="-64.92257390293125" y2="-12.596180330935681" stroke="#ffffff" stroke-width="2.82229823285846" stroke-linecap="round"></line><line x1="-57.30959362446181" x2="-57.30959362446181" y1="-189.92257390293125" y2="-137.59618033093568" stroke="#ffffff" stroke-width="2.82229823285846" stroke-linecap="round"></line><line x1="-77.28014841564016" x2="-77.28014841564016" y1="213.52004902012624" y2="282.1717646111818" stroke="#ffffff" stroke-width="3.8450982032565415" stroke-linecap="round"></line><line x1="-77.28014841564016" x2="-77.28014841564016" y1="88.52004902012622" y2="157.17176461118183" stroke="#ffffff" stroke-width="3.8450982032565415" stroke-linecap="round"></line><line x1="-77.28014841564016" x2="-77.28014841564016" y1="-36.47995097987378" y2="32.17176461118182" stroke="#ffffff" stroke-width="3.8450982032565415" stroke-linecap="round"></line><line x1="-77.28014841564016" x2="-77.28014841564016" y1="-161.47995097987376" y2="-92.82823538881817" stroke="#ffffff" stroke-width="3.8450982032565415" stroke-linecap="round"></line><line x1="-77.28014841564016" x2="-77.28014841564016" y1="-286.47995097987376" y2="-217.82823538881817" stroke="#ffffff" stroke-width="3.8450982032565415" stroke-linecap="round"></line><line x1="59.50017313128774" x2="59.50017313128774" y1="240.21395426536625" y2="311.74642923877803" stroke="#ffffff" stroke-width="0.29533030436449503" stroke-linecap="round"></line><line x1="59.50017313128774" x2="59.50017313128774" y1="115.21395426536627" y2="186.74642923877803" stroke="#ffffff" stroke-width="0.29533030436449503" stroke-linecap="round"></line><line x1="59.50017313128774" x2="59.50017313128774" y1="-9.786045734633737" y2="61.746429238778035" stroke="#ffffff" stroke-width="0.29533030436449503" stroke-linecap="round"></line><line x1="59.50017313128774" x2="59.50017313128774" y1="-134.78604573463375" y2="-63.253570761221965" stroke="#ffffff" stroke-width="0.29533030436449503" stroke-linecap="round"></line><line x1="59.50017313128774" x2="59.50017313128774" y1="-259.7860457346337" y2="-188.25357076122197" stroke="#ffffff" stroke-width="0.29533030436449503" stroke-linecap="round"></line><line x1="80.45535233045383" x2="80.45535233045383" y1="309.279996908816" y2="341.9273764771977" stroke="#ffffff" stroke-width="4.0057838609667895" stroke-linecap="round"></line><line x1="80.45535233045383" x2="80.45535233045383" y1="184.27999690881597" y2="216.9273764771977" stroke="#ffffff" stroke-width="4.0057838609667895" stroke-linecap="round"></line><line x1="80.45535233045383" x2="80.45535233045383" y1="59.27999690881597" y2="91.9273764771977" stroke="#ffffff" stroke-width="4.0057838609667895" stroke-linecap="round"></line><line x1="80.45535233045383" x2="80.45535233045383" y1="-65.72000309118403" y2="-33.0726235228023" stroke="#ffffff" stroke-width="4.0057838609667895" stroke-linecap="round"></line><line x1="80.45535233045383" x2="80.45535233045383" y1="-190.72000309118403" y2="-158.0726235228023" stroke="#ffffff" stroke-width="4.0057838609667895" stroke-linecap="round"></line><line x1="124.91450761217672" x2="124.91450761217672" y1="277.5719275741947" y2="346.5928988902897" stroke="#ffffff" stroke-width="3.286833125634794" stroke-linecap="round"></line><line x1="124.91450761217672" x2="124.91450761217672" y1="152.57192757419472" y2="221.5928988902897" stroke="#ffffff" stroke-width="3.286833125634794" stroke-linecap="round"></line><line x1="124.91450761217672" x2="124.91450761217672" y1="27.571927574194717" y2="96.59289889028969" stroke="#ffffff" stroke-width="3.286833125634794" stroke-linecap="round"></line><line x1="124.91450761217672" x2="124.91450761217672" y1="-97.42807242580528" y2="-28.40710110971031" stroke="#ffffff" stroke-width="3.286833125634794" stroke-linecap="round"></line><line x1="124.91450761217672" x2="124.91450761217672" y1="-222.42807242580528" y2="-153.4071011097103" stroke="#ffffff" stroke-width="3.286833125634794" stroke-linecap="round"></line><line x1="-123.57389584565664" x2="-123.57389584565664" y1="230.83615318967182" y2="288.7583947445775" stroke="#ffffff" stroke-width="4.688757345555931" stroke-linecap="round"></line><line x1="-123.57389584565664" x2="-123.57389584565664" y1="105.83615318967182" y2="163.75839474457752" stroke="#ffffff" stroke-width="4.688757345555931" stroke-linecap="round"></line><line x1="-123.57389584565664" x2="-123.57389584565664" y1="-19.163846810328177" y2="38.758394744577515" stroke="#ffffff" stroke-width="4.688757345555931" stroke-linecap="round"></line><line x1="-123.57389584565664" x2="-123.57389584565664" y1="-144.16384681032818" y2="-86.24160525542248" stroke="#ffffff" stroke-width="4.688757345555931" stroke-linecap="round"></line><line x1="-123.57389584565664" x2="-123.57389584565664" y1="-269.16384681032815" y2="-211.24160525542248" stroke="#ffffff" stroke-width="4.688757345555931" stroke-linecap="round"></line><line x1="-118.25745343956739" x2="-118.25745343956739" y1="221.75484483609114" y2="285.06911407600074" stroke="#ffffff" stroke-width="1.8414621457463154" stroke-linecap="round"></line><line x1="-118.25745343956739" x2="-118.25745343956739" y1="96.75484483609115" y2="160.06911407600074" stroke="#ffffff" stroke-width="1.8414621457463154" stroke-linecap="round"></line><line x1="-118.25745343956739" x2="-118.25745343956739" y1="-28.24515516390885" y2="35.069114076000744" stroke="#ffffff" stroke-width="1.8414621457463154" stroke-linecap="round"></line><line x1="-118.25745343956739" x2="-118.25745343956739" y1="-153.24515516390886" y2="-89.93088592399926" stroke="#ffffff" stroke-width="1.8414621457463154" stroke-linecap="round"></line><line x1="-118.25745343956739" x2="-118.25745343956739" y1="-278.24515516390886" y2="-214.93088592399926" stroke="#ffffff" stroke-width="1.8414621457463154" stroke-linecap="round"></line><line x1="-13.10426062011687" x2="-13.10426062011687" y1="283.67260898052916" y2="364.9757337425941" stroke="#ffffff" stroke-width="2.956084026404434" stroke-linecap="round"></line><line x1="-13.10426062011687" x2="-13.10426062011687" y1="158.67260898052916" y2="239.9757337425941" stroke="#ffffff" stroke-width="2.956084026404434" stroke-linecap="round"></line><line x1="-13.10426062011687" x2="-13.10426062011687" y1="33.67260898052915" y2="114.97573374259409" stroke="#ffffff" stroke-width="2.956084026404434" stroke-linecap="round"></line><line x1="-13.10426062011687" x2="-13.10426062011687" y1="-91.32739101947085" y2="-10.024266257405912" stroke="#ffffff" stroke-width="2.956084026404434" stroke-linecap="round"></line><line x1="-13.10426062011687" x2="-13.10426062011687" y1="-216.32739101947084" y2="-135.0242662574059" stroke="#ffffff" stroke-width="2.956084026404434" stroke-linecap="round"></line><line x1="85.24931077984684" x2="85.24931077984684" y1="259.6709942779876" y2="330.27874546522753" stroke="#ffffff" stroke-width="0.016098301687177408" stroke-linecap="round"></line><line x1="85.24931077984684" x2="85.24931077984684" y1="134.6709942779876" y2="205.2787454652275" stroke="#ffffff" stroke-width="0.016098301687177408" stroke-linecap="round"></line><line x1="85.24931077984684" x2="85.24931077984684" y1="9.670994277987594" y2="80.2787454652275" stroke="#ffffff" stroke-width="0.016098301687177408" stroke-linecap="round"></line><line x1="85.24931077984684" x2="85.24931077984684" y1="-115.32900572201241" y2="-44.7212545347725" stroke="#ffffff" stroke-width="0.016098301687177408" stroke-linecap="round"></line><line x1="85.24931077984684" x2="85.24931077984684" y1="-240.3290057220124" y2="-169.7212545347725" stroke="#ffffff" stroke-width="0.016098301687177408" stroke-linecap="round"></line><line x1="22.273955956817282" x2="22.273955956817282" y1="247.55063233021775" y2="322.0234761087241" stroke="#ffffff" stroke-width="1.8879836162613073" stroke-linecap="round"></line><line x1="22.273955956817282" x2="22.273955956817282" y1="122.55063233021777" y2="197.02347610872408" stroke="#ffffff" stroke-width="1.8879836162613073" stroke-linecap="round"></line><line x1="22.273955956817282" x2="22.273955956817282" y1="-2.4493676697822373" y2="72.02347610872408" stroke="#ffffff" stroke-width="1.8879836162613073" stroke-linecap="round"></line><line x1="22.273955956817282" x2="22.273955956817282" y1="-127.44936766978223" y2="-52.97652389127592" stroke="#ffffff" stroke-width="1.8879836162613073" stroke-linecap="round"></line><line x1="22.273955956817282" x2="22.273955956817282" y1="-252.44936766978225" y2="-177.97652389127592" stroke="#ffffff" stroke-width="1.8879836162613073" stroke-linecap="round"></line><line x1="-103.41895919583112" x2="-103.41895919583112" y1="283.6901126448527" y2="308.8040293485348" stroke="#ffffff" stroke-width="4.939822475265164" stroke-linecap="round"></line><line x1="-103.41895919583112" x2="-103.41895919583112" y1="158.6901126448527" y2="183.80402934853478" stroke="#ffffff" stroke-width="4.939822475265164" stroke-linecap="round"></line><line x1="-103.41895919583112" x2="-103.41895919583112" y1="33.6901126448527" y2="58.80402934853479" stroke="#ffffff" stroke-width="4.939822475265164" stroke-linecap="round"></line><line x1="-103.41895919583112" x2="-103.41895919583112" y1="-91.30988735514731" y2="-66.19597065146522" stroke="#ffffff" stroke-width="4.939822475265164" stroke-linecap="round"></line><line x1="-103.41895919583112" x2="-103.41895919583112" y1="-216.3098873551473" y2="-191.19597065146522" stroke="#ffffff" stroke-width="4.939822475265164" stroke-linecap="round"></line><line x1="-63.475452583614135" x2="-63.475452583614135" y1="278.68846660393336" y2="305.704655600054" stroke="#ffffff" stroke-width="1.8793905841866332" stroke-linecap="round"></line><line x1="-63.475452583614135" x2="-63.475452583614135" y1="153.68846660393334" y2="180.70465560005402" stroke="#ffffff" stroke-width="1.8793905841866332" stroke-linecap="round"></line><line x1="-63.475452583614135" x2="-63.475452583614135" y1="28.688466603933342" y2="55.70465560005403" stroke="#ffffff" stroke-width="1.8793905841866332" stroke-linecap="round"></line><line x1="-63.475452583614135" x2="-63.475452583614135" y1="-96.31153339606666" y2="-69.29534439994598" stroke="#ffffff" stroke-width="1.8793905841866332" stroke-linecap="round"></line><line x1="-63.475452583614135" x2="-63.475452583614135" y1="-221.31153339606666" y2="-194.29534439994598" stroke="#ffffff" stroke-width="1.8793905841866332" stroke-linecap="round"></line><line x1="-94.83341736220639" x2="-94.83341736220639" y1="263.7307006990179" y2="315.45978948090874" stroke="#ffffff" stroke-width="1.8723112994855984" stroke-linecap="round"></line><line x1="-94.83341736220639" x2="-94.83341736220639" y1="138.73070069901792" y2="190.45978948090874" stroke="#ffffff" stroke-width="1.8723112994855984" stroke-linecap="round"></line><line x1="-94.83341736220639" x2="-94.83341736220639" y1="13.73070069901791" y2="65.45978948090874" stroke="#ffffff" stroke-width="1.8723112994855984" stroke-linecap="round"></line><line x1="-94.83341736220639" x2="-94.83341736220639" y1="-111.26929930098208" y2="-59.54021051909126" stroke="#ffffff" stroke-width="1.8723112994855984" stroke-linecap="round"></line><line x1="-94.83341736220639" x2="-94.83341736220639" y1="-236.26929930098208" y2="-184.54021051909126" stroke="#ffffff" stroke-width="1.8723112994855984" stroke-linecap="round"></line><line x1="29.72761049808014" x2="29.72761049808014" y1="280.72374735970243" y2="365.9476478287513" stroke="#ffffff" stroke-width="4.722105032460828" stroke-linecap="round"></line><line x1="29.72761049808014" x2="29.72761049808014" y1="155.72374735970243" y2="240.94764782875131" stroke="#ffffff" stroke-width="4.722105032460828" stroke-linecap="round"></line><line x1="29.72761049808014" x2="29.72761049808014" y1="30.72374735970243" y2="115.94764782875131" stroke="#ffffff" stroke-width="4.722105032460828" stroke-linecap="round"></line><line x1="29.72761049808014" x2="29.72761049808014" y1="-94.27625264029757" y2="-9.052352171248685" stroke="#ffffff" stroke-width="4.722105032460828" stroke-linecap="round"></line><line x1="29.72761049808014" x2="29.72761049808014" y1="-219.27625264029757" y2="-134.05235217124869" stroke="#ffffff" stroke-width="4.722105032460828" stroke-linecap="round"></line><line x1="-69.18811117796551" x2="-69.18811117796551" y1="231.87829833735103" y2="302.71428555375815" stroke="#ffffff" stroke-width="0.583339871055174" stroke-linecap="round"></line><line x1="-69.18811117796551" x2="-69.18811117796551" y1="106.87829833735103" y2="177.71428555375815" stroke="#ffffff" stroke-width="0.583339871055174" stroke-linecap="round"></line><line x1="-69.18811117796551" x2="-69.18811117796551" y1="-18.12170166264898" y2="52.714285553758145" stroke="#ffffff" stroke-width="0.583339871055174" stroke-linecap="round"></line><line x1="-69.18811117796551" x2="-69.18811117796551" y1="-143.12170166264897" y2="-72.28571444624185" stroke="#ffffff" stroke-width="0.583339871055174" stroke-linecap="round"></line><line x1="-69.18811117796551" x2="-69.18811117796551" y1="-268.121701662649" y2="-197.28571444624185" stroke="#ffffff" stroke-width="0.583339871055174" stroke-linecap="round"></line><line x1="-132.48769933812866" x2="-132.48769933812866" y1="218.65241803949417" y2="265.49387315670276" stroke="#ffffff" stroke-width="2.894736406432743" stroke-linecap="round"></line><line x1="-132.48769933812866" x2="-132.48769933812866" y1="93.65241803949417" y2="140.49387315670273" stroke="#ffffff" stroke-width="2.894736406432743" stroke-linecap="round"></line><line x1="-132.48769933812866" x2="-132.48769933812866" y1="-31.347581960505828" y2="15.493873156702744" stroke="#ffffff" stroke-width="2.894736406432743" stroke-linecap="round"></line><line x1="-132.48769933812866" x2="-132.48769933812866" y1="-156.34758196050583" y2="-109.50612684329725" stroke="#ffffff" stroke-width="2.894736406432743" stroke-linecap="round"></line><line x1="-132.48769933812866" x2="-132.48769933812866" y1="-281.3475819605058" y2="-234.50612684329727" stroke="#ffffff" stroke-width="2.894736406432743" stroke-linecap="round"></line><line x1="16.606299680762024" x2="16.606299680762024" y1="273.37110398885443" y2="327.94227406249945" stroke="#ffffff" stroke-width="1.0402803203225564" stroke-linecap="round"></line><line x1="16.606299680762024" x2="16.606299680762024" y1="148.37110398885443" y2="202.94227406249945" stroke="#ffffff" stroke-width="1.0402803203225564" stroke-linecap="round"></line><line x1="16.606299680762024" x2="16.606299680762024" y1="23.37110398885442" y2="77.94227406249946" stroke="#ffffff" stroke-width="1.0402803203225564" stroke-linecap="round"></line><line x1="16.606299680762024" x2="16.606299680762024" y1="-101.62889601114559" y2="-47.057725937500535" stroke="#ffffff" stroke-width="1.0402803203225564" stroke-linecap="round"></line><line x1="16.606299680762024" x2="16.606299680762024" y1="-226.62889601114557" y2="-172.05772593750055" stroke="#ffffff" stroke-width="1.0402803203225564" stroke-linecap="round"></line><line x1="14.243363309067263" x2="14.243363309067263" y1="210.37585408798444" y2="283.72186591791694" stroke="#ffffff" stroke-width="0.7183119276725602" stroke-linecap="round"></line><line x1="14.243363309067263" x2="14.243363309067263" y1="85.37585408798444" y2="158.72186591791694" stroke="#ffffff" stroke-width="0.7183119276725602" stroke-linecap="round"></line><line x1="14.243363309067263" x2="14.243363309067263" y1="-39.62414591201557" y2="33.721865917916936" stroke="#ffffff" stroke-width="0.7183119276725602" stroke-linecap="round"></line><line x1="14.243363309067263" x2="14.243363309067263" y1="-164.62414591201556" y2="-91.27813408208306" stroke="#ffffff" stroke-width="0.7183119276725602" stroke-linecap="round"></line><line x1="14.243363309067263" x2="14.243363309067263" y1="-289.6241459120156" y2="-216.27813408208306" stroke="#ffffff" stroke-width="0.7183119276725602" stroke-linecap="round"></line><line x1="-51.985103791313506" x2="-51.985103791313506" y1="276.8827694700995" y2="303.96083032506505" stroke="#ffffff" stroke-width="3.5414140989602796" stroke-linecap="round"></line><line x1="-51.985103791313506" x2="-51.985103791313506" y1="151.8827694700995" y2="178.96083032506507" stroke="#ffffff" stroke-width="3.5414140989602796" stroke-linecap="round"></line><line x1="-51.985103791313506" x2="-51.985103791313506" y1="26.88276947009949" y2="53.96083032506507" stroke="#ffffff" stroke-width="3.5414140989602796" stroke-linecap="round"></line><line x1="-51.985103791313506" x2="-51.985103791313506" y1="-98.11723052990051" y2="-71.03916967493493" stroke="#ffffff" stroke-width="3.5414140989602796" stroke-linecap="round"></line><line x1="-51.985103791313506" x2="-51.985103791313506" y1="-223.1172305299005" y2="-196.03916967493493" stroke="#ffffff" stroke-width="3.5414140989602796" stroke-linecap="round"></line><line x1="58.107615478514546" x2="58.107615478514546" y1="227.45702724160728" y2="296.50920577544105" stroke="#ffffff" stroke-width="0.5837995482166292" stroke-linecap="round"></line><line x1="58.107615478514546" x2="58.107615478514546" y1="102.45702724160726" y2="171.50920577544107" stroke="#ffffff" stroke-width="0.5837995482166292" stroke-linecap="round"></line><line x1="58.107615478514546" x2="58.107615478514546" y1="-22.542972758392732" y2="46.509205775441075" stroke="#ffffff" stroke-width="0.5837995482166292" stroke-linecap="round"></line><line x1="58.107615478514546" x2="58.107615478514546" y1="-147.54297275839272" y2="-78.49079422455893" stroke="#ffffff" stroke-width="0.5837995482166292" stroke-linecap="round"></line><line x1="58.107615478514546" x2="58.107615478514546" y1="-272.54297275839275" y2="-203.49079422455893" stroke="#ffffff" stroke-width="0.5837995482166292" stroke-linecap="round"></line><line x1="50.0787551328229" x2="50.0787551328229" y1="211.60145998128658" y2="280.8928489765435" stroke="#ffffff" stroke-width="2.0676561852319244" stroke-linecap="round"></line><line x1="50.0787551328229" x2="50.0787551328229" y1="86.60145998128658" y2="155.89284897654352" stroke="#ffffff" stroke-width="2.0676561852319244" stroke-linecap="round"></line><line x1="50.0787551328229" x2="50.0787551328229" y1="-38.398540018713426" y2="30.892848976543505" stroke="#ffffff" stroke-width="2.0676561852319244" stroke-linecap="round"></line><line x1="50.0787551328229" x2="50.0787551328229" y1="-163.39854001871342" y2="-94.1071510234565" stroke="#ffffff" stroke-width="2.0676561852319244" stroke-linecap="round"></line><line x1="50.0787551328229" x2="50.0787551328229" y1="-288.39854001871345" y2="-219.10715102345648" stroke="#ffffff" stroke-width="2.0676561852319244" stroke-linecap="round"></line><line x1="109.02454395463548" x2="109.02454395463548" y1="263.1515319797498" y2="345.40252419128734" stroke="#ffffff" stroke-width="0.6851572781445692" stroke-linecap="round"></line><line x1="109.02454395463548" x2="109.02454395463548" y1="138.1515319797498" y2="220.40252419128734" stroke="#ffffff" stroke-width="0.6851572781445692" stroke-linecap="round"></line><line x1="109.02454395463548" x2="109.02454395463548" y1="13.151531979749803" y2="95.40252419128734" stroke="#ffffff" stroke-width="0.6851572781445692" stroke-linecap="round"></line><line x1="109.02454395463548" x2="109.02454395463548" y1="-111.8484680202502" y2="-29.59747580871266" stroke="#ffffff" stroke-width="0.6851572781445692" stroke-linecap="round"></line><line x1="109.02454395463548" x2="109.02454395463548" y1="-236.8484680202502" y2="-154.59747580871266" stroke="#ffffff" stroke-width="0.6851572781445692" stroke-linecap="round"></line><line x1="59.87303269453146" x2="59.87303269453146" y1="239.8864279931456" y2="318.8422406220931" stroke="#ffffff" stroke-width="4.166617837999795" stroke-linecap="round"></line><line x1="59.87303269453146" x2="59.87303269453146" y1="114.88642799314557" y2="193.84224062209307" stroke="#ffffff" stroke-width="4.166617837999795" stroke-linecap="round"></line><line x1="59.87303269453146" x2="59.87303269453146" y1="-10.11357200685442" y2="68.84224062209307" stroke="#ffffff" stroke-width="4.166617837999795" stroke-linecap="round"></line><line x1="59.87303269453146" x2="59.87303269453146" y1="-135.1135720068544" y2="-56.15775937790693" stroke="#ffffff" stroke-width="4.166617837999795" stroke-linecap="round"></line><line x1="59.87303269453146" x2="59.87303269453146" y1="-260.11357200685444" y2="-181.15775937790693" stroke="#ffffff" stroke-width="4.166617837999795" stroke-linecap="round"></line><line x1="76.34604450787391" x2="76.34604450787391" y1="305.2668805919346" y2="334.34150034884635" stroke="#ffffff" stroke-width="3.9481700196553704" stroke-linecap="round"></line><line x1="76.34604450787391" x2="76.34604450787391" y1="180.2668805919346" y2="209.34150034884638" stroke="#ffffff" stroke-width="3.9481700196553704" stroke-linecap="round"></line><line x1="76.34604450787391" x2="76.34604450787391" y1="55.2668805919346" y2="84.34150034884638" stroke="#ffffff" stroke-width="3.9481700196553704" stroke-linecap="round"></line><line x1="76.34604450787391" x2="76.34604450787391" y1="-69.73311940806539" y2="-40.65849965115362" stroke="#ffffff" stroke-width="3.9481700196553704" stroke-linecap="round"></line><line x1="76.34604450787391" x2="76.34604450787391" y1="-194.7331194080654" y2="-165.65849965115362" stroke="#ffffff" stroke-width="3.9481700196553704" stroke-linecap="round"></line><line x1="-19.845249227729475" x2="-19.845249227729475" y1="208.0341152554723" y2="277.7566972080034" stroke="#ffffff" stroke-width="3.0452181424897393" stroke-linecap="round"></line><line x1="-19.845249227729475" x2="-19.845249227729475" y1="83.0341152554723" y2="152.7566972080034" stroke="#ffffff" stroke-width="3.0452181424897393" stroke-linecap="round"></line><line x1="-19.845249227729475" x2="-19.845249227729475" y1="-41.9658847445277" y2="27.756697208003395" stroke="#ffffff" stroke-width="3.0452181424897393" stroke-linecap="round"></line><line x1="-19.845249227729475" x2="-19.845249227729475" y1="-166.9658847445277" y2="-97.2433027919966" stroke="#ffffff" stroke-width="3.0452181424897393" stroke-linecap="round"></line><line x1="-19.845249227729475" x2="-19.845249227729475" y1="-291.96588474452767" y2="-222.2433027919966" stroke="#ffffff" stroke-width="3.0452181424897393" stroke-linecap="round"></line><line x1="134.70756826025715" x2="134.70756826025715" y1="241.40190474764668" y2="302.16801014637866" stroke="#ffffff" stroke-width="4.4715445329159085" stroke-linecap="round"></line><line x1="134.70756826025715" x2="134.70756826025715" y1="116.4019047476467" y2="177.1680101463787" stroke="#ffffff" stroke-width="4.4715445329159085" stroke-linecap="round"></line><line x1="134.70756826025715" x2="134.70756826025715" y1="-8.598095252353305" y2="52.168010146378684" stroke="#ffffff" stroke-width="4.4715445329159085" stroke-linecap="round"></line><line x1="134.70756826025715" x2="134.70756826025715" y1="-133.59809525235332" y2="-72.83198985362131" stroke="#ffffff" stroke-width="4.4715445329159085" stroke-linecap="round"></line><line x1="134.70756826025715" x2="134.70756826025715" y1="-258.5980952523533" y2="-197.8319898536213" stroke="#ffffff" stroke-width="4.4715445329159085" stroke-linecap="round"></line><line x1="72.65999052328888" x2="72.65999052328888" y1="246.33123583877043" y2="320.13975357077703" stroke="#ffffff" stroke-width="3.3393250021330756" stroke-linecap="round"></line><line x1="72.65999052328888" x2="72.65999052328888" y1="121.33123583877043" y2="195.13975357077703" stroke="#ffffff" stroke-width="3.3393250021330756" stroke-linecap="round"></line><line x1="72.65999052328888" x2="72.65999052328888" y1="-3.6687641612295763" y2="70.13975357077702" stroke="#ffffff" stroke-width="3.3393250021330756" stroke-linecap="round"></line><line x1="72.65999052328888" x2="72.65999052328888" y1="-128.66876416122957" y2="-54.86024642922298" stroke="#ffffff" stroke-width="3.3393250021330756" stroke-linecap="round"></line><line x1="72.65999052328888" x2="72.65999052328888" y1="-253.66876416122957" y2="-179.86024642922297" stroke="#ffffff" stroke-width="3.3393250021330756" stroke-linecap="round"></line><line x1="53.61030843285554" x2="53.61030843285554" y1="248.08295190575427" y2="326.1508898563794" stroke="#ffffff" stroke-width="3.1547390154069754" stroke-linecap="round"></line><line x1="53.61030843285554" x2="53.61030843285554" y1="123.08295190575427" y2="201.15088985637942" stroke="#ffffff" stroke-width="3.1547390154069754" stroke-linecap="round"></line><line x1="53.61030843285554" x2="53.61030843285554" y1="-1.9170480942457269" y2="76.15088985637942" stroke="#ffffff" stroke-width="3.1547390154069754" stroke-linecap="round"></line><line x1="53.61030843285554" x2="53.61030843285554" y1="-126.91704809424573" y2="-48.84911014362058" stroke="#ffffff" stroke-width="3.1547390154069754" stroke-linecap="round"></line><line x1="53.61030843285554" x2="53.61030843285554" y1="-251.91704809424573" y2="-173.84911014362058" stroke="#ffffff" stroke-width="3.1547390154069754" stroke-linecap="round"></line><line x1="56.434705394937694" x2="56.434705394937694" y1="296.07899200903836" y2="351.9791574852576" stroke="#ffffff" stroke-width="0.6798421958903345" stroke-linecap="round"></line><line x1="56.434705394937694" x2="56.434705394937694" y1="171.07899200903833" y2="226.9791574852576" stroke="#ffffff" stroke-width="0.6798421958903345" stroke-linecap="round"></line><line x1="56.434705394937694" x2="56.434705394937694" y1="46.07899200903834" y2="101.97915748525757" stroke="#ffffff" stroke-width="0.6798421958903345" stroke-linecap="round"></line><line x1="56.434705394937694" x2="56.434705394937694" y1="-78.92100799096167" y2="-23.020842514742426" stroke="#ffffff" stroke-width="0.6798421958903345" stroke-linecap="round"></line><line x1="56.434705394937694" x2="56.434705394937694" y1="-203.92100799096167" y2="-148.0208425147424" stroke="#ffffff" stroke-width="0.6798421958903345" stroke-linecap="round"></line><line x1="45.90403464395449" x2="45.90403464395449" y1="201.24990571605417" y2="277.8711038343778" stroke="#ffffff" stroke-width="0.5774649397822418" stroke-linecap="round"></line><line x1="45.90403464395449" x2="45.90403464395449" y1="76.24990571605417" y2="152.87110383437778" stroke="#ffffff" stroke-width="0.5774649397822418" stroke-linecap="round"></line><line x1="45.90403464395449" x2="45.90403464395449" y1="-48.750094283945835" y2="27.871103834377784" stroke="#ffffff" stroke-width="0.5774649397822418" stroke-linecap="round"></line><line x1="45.90403464395449" x2="45.90403464395449" y1="-173.75009428394583" y2="-97.12889616562222" stroke="#ffffff" stroke-width="0.5774649397822418" stroke-linecap="round"></line><line x1="45.90403464395449" x2="45.90403464395449" y1="-298.7500942839458" y2="-222.12889616562222" stroke="#ffffff" stroke-width="0.5774649397822418" stroke-linecap="round"></line><line x1="106.76211902516557" x2="106.76211902516557" y1="200.69135256484873" y2="232.09204288103132" stroke="#ffffff" stroke-width="4.141681305248649" stroke-linecap="round"></line><line x1="106.76211902516557" x2="106.76211902516557" y1="75.69135256484874" y2="107.09204288103132" stroke="#ffffff" stroke-width="4.141681305248649" stroke-linecap="round"></line><line x1="106.76211902516557" x2="106.76211902516557" y1="-49.30864743515126" y2="-17.90795711896869" stroke="#ffffff" stroke-width="4.141681305248649" stroke-linecap="round"></line><line x1="106.76211902516557" x2="106.76211902516557" y1="-174.30864743515127" y2="-142.90795711896868" stroke="#ffffff" stroke-width="4.141681305248649" stroke-linecap="round"></line><line x1="106.76211902516557" x2="106.76211902516557" y1="-299.3086474351513" y2="-267.9079571189687" stroke="#ffffff" stroke-width="4.141681305248649" stroke-linecap="round"></line><line x1="103.17050383260963" x2="103.17050383260963" y1="219.2015269240737" y2="248.62470958538825" stroke="#ffffff" stroke-width="4.647478539834831" stroke-linecap="round"></line><line x1="103.17050383260963" x2="103.17050383260963" y1="94.20152692407372" y2="123.62470958538823" stroke="#ffffff" stroke-width="4.647478539834831" stroke-linecap="round"></line><line x1="103.17050383260963" x2="103.17050383260963" y1="-30.798473075926285" y2="-1.3752904146117686" stroke="#ffffff" stroke-width="4.647478539834831" stroke-linecap="round"></line><line x1="103.17050383260963" x2="103.17050383260963" y1="-155.7984730759263" y2="-126.37529041461177" stroke="#ffffff" stroke-width="4.647478539834831" stroke-linecap="round"></line><line x1="103.17050383260963" x2="103.17050383260963" y1="-280.79847307592627" y2="-251.37529041461175" stroke="#ffffff" stroke-width="4.647478539834831" stroke-linecap="round"></line><line x1="-55.68924039483744" x2="-55.68924039483744" y1="225.66776708353078" y2="283.94625597488545" stroke="#ffffff" stroke-width="2.6777620899075094" stroke-linecap="round"></line><line x1="-55.68924039483744" x2="-55.68924039483744" y1="100.66776708353078" y2="158.94625597488545" stroke="#ffffff" stroke-width="2.6777620899075094" stroke-linecap="round"></line><line x1="-55.68924039483744" x2="-55.68924039483744" y1="-24.332232916469216" y2="33.94625597488546" stroke="#ffffff" stroke-width="2.6777620899075094" stroke-linecap="round"></line><line x1="-55.68924039483744" x2="-55.68924039483744" y1="-149.33223291646922" y2="-91.05374402511454" stroke="#ffffff" stroke-width="2.6777620899075094" stroke-linecap="round"></line><line x1="-55.68924039483744" x2="-55.68924039483744" y1="-274.3322329164692" y2="-216.05374402511455" stroke="#ffffff" stroke-width="2.6777620899075094" stroke-linecap="round"></line><line x1="32.48382258875972" x2="32.48382258875972" y1="294.91394944301913" y2="338.1304185497936" stroke="#ffffff" stroke-width="3.3723172441341873" stroke-linecap="round"></line><line x1="32.48382258875972" x2="32.48382258875972" y1="169.91394944301913" y2="213.1304185497936" stroke="#ffffff" stroke-width="3.3723172441341873" stroke-linecap="round"></line><line x1="32.48382258875972" x2="32.48382258875972" y1="44.91394944301913" y2="88.13041854979359" stroke="#ffffff" stroke-width="3.3723172441341873" stroke-linecap="round"></line><line x1="32.48382258875972" x2="32.48382258875972" y1="-80.08605055698087" y2="-36.86958145020641" stroke="#ffffff" stroke-width="3.3723172441341873" stroke-linecap="round"></line><line x1="32.48382258875972" x2="32.48382258875972" y1="-205.08605055698087" y2="-161.8695814502064" stroke="#ffffff" stroke-width="3.3723172441341873" stroke-linecap="round"></line></g>
    </g>
    <g></g>
  </g>

</g>
</svg>